<svg id="a357cee7-62d1-440a-be78-bfb1dad1dd96" data-name="Layer 1" xmlns="http://www.w3.org/2000/svg" xmlns:xlink="http://www.w3.org/1999/xlink" viewBox="0 0 757 136"><defs><style>.a2463c4f-2e1c-4291-905e-7451cc426204{fill:#231f20;}.b6a2d67d-66fb-4858-98d5-2d59fed6ba43{fill:url(#e901a32e-531d-4808-a837-f8b1634f31cd);}.bb3ba152-96e8-4a90-affb-bd7f03e18bb8{fill:url(#e869da3a-39cb-46a2-94d8-b7a22528eefa);}.e6cd5d4f-44c4-449b-915e-7e3d880e0095{fill:url(#e7727de9-7ed3-40f5-9b88-e730699b5514);}.f46f5be8-6ea0-46a3-895d-713d0905b9b0{fill:url(#a1230e02-5b24-4e8e-bbea-e351d63b5742);}.a6fb705a-a004-433c-ae3c-7c0f4ff79fa6{fill:url(#aedb35c3-35a9-4656-97f0-d11787636a9a);}</style><linearGradient id="e901a32e-531d-4808-a837-f8b1634f31cd" x1="497.3686" y1="540.7538" x2="497.3686" y2="636.1439" gradientTransform="matrix(0.4497, 0.8932, -1.2492, 0.6289, 573.1082, -768.935)" gradientUnits="userSpaceOnUse"><stop offset="0" stop-color="#5489c7"/><stop offset="1" stop-color="#fdc57b"/></linearGradient><linearGradient id="e869da3a-39cb-46a2-94d8-b7a22528eefa" x1="550.6148" y1="541.5911" x2="550.6148" y2="636.9824" gradientTransform="matrix(0.4497, 0.8932, -1.2433, 0.626, 572.9047, -768.8514)" gradientUnits="userSpaceOnUse"><stop offset="0" stop-color="#1ca296"/><stop offset="1" stop-color="#5489c7"/></linearGradient><linearGradient id="e7727de9-7ed3-40f5-9b88-e730699b5514" x1="887.57" y1="954.3662" x2="887.57" y2="806.0895" gradientTransform="translate(954.8784 -818.8784) rotate(90)" gradientUnits="userSpaceOnUse"><stop offset="0" stop-color="#fdc57b"/><stop offset="1" stop-color="#1ca296"/></linearGradient><linearGradient id="a1230e02-5b24-4e8e-bbea-e351d63b5742" x1="840.6639" y1="832.5298" x2="840.6639" y2="927.9357" gradientTransform="translate(954.8784 -818.8784) rotate(90)" gradientUnits="userSpaceOnUse"><stop offset="0" stop-color="#5489c7"/><stop offset="1" stop-color="#d14f4f"/></linearGradient><linearGradient id="aedb35c3-35a9-4656-97f0-d11787636a9a" x1="933.9186" y1="927.9357" x2="933.9186" y2="832.5298" xlink:href="#a1230e02-5b24-4e8e-bbea-e351d63b5742"/></defs><path class="a2463c4f-2e1c-4291-905e-7451cc426204" d="M251.0761,100.74h-8.31l-9.1719-15.7922H189.9071L180.7352,100.74h-8.31l35.86-63.41h7.103Zm-39.2736-55.1-17.137,30.9638h34.2739Z"/><path class="a2463c4f-2e1c-4291-905e-7451cc426204" d="M308.0039,63.88c12.1027.3792,24.8607,5.7583,24.8607,18.62,0,10.6545-7.5858,20.2057-30.86,20.2057-21.0677,0-32.6877-7.9651-37.6874-11.2752l4.0342-7.5858c4.8963,3.5515,14.5509,10.5166,33.0326,10.5166,16.0336,0,23.1367-4.7584,23.1367-11.62,0-7.7237-7.5858-10.2754-14.6888-10.5166l-18.9645-.4828c-7.5858-.138-21.7919-3.9309-21.7919-17.62,0-10.758,10.1718-18.723,27.4122-18.723,19.5851,0,30.4811,7.3444,32.6878,8.8271l-3.7929,7.4823c-8.2064-4.7583-17.7576-7.965-27.1709-7.965-15.6542,0-20.7919,4.8963-20.7919,10.2753,0,7.103,6.241,9.31,12.9648,9.4133Z"/><path class="a2463c4f-2e1c-4291-905e-7451cc426204" d="M384,100.74h-8.31V45.674H350.2429v-8.31h59.238v8.31H384.034V100.74Z"/><path class="a2463c4f-2e1c-4291-905e-7451cc426204" d="M498.1655,100.74H487.7523l-17.999-25.6883H441.72V100.74h-8.31V37.33h39.2737c11.5166,0,24.1021,4.517,24.1021,18.861,0,11.8614-10.2753,17.5162-17.137,18.24ZM472.7187,66.7072c8.0685,0,15.7922-2.0689,15.7922-10.5166,0-9.1719-8.6892-10.5166-15.7922-10.5166H441.7549V66.7417h30.9638Z"/><path class="a2463c4f-2e1c-4291-905e-7451cc426204" d="M594.2635,100.74h-8.31l-9.1719-15.7922H533.0946L523.9227,100.74h-8.31l35.86-63.41h7.103Zm-39.3081-55.1L537.8185,76.6033h34.2739Z"/><path class="a2463c4f-2e1c-4291-905e-7451cc426204" d="M640.2609,100.74h-8.31V45.674H606.5042v-8.31h59.238v8.31H640.2954V100.74Z"/><path class="a2463c4f-2e1c-4291-905e-7451cc426204" d="M756.7715,100.74h-8.31L739.29,84.9477H695.6026L686.4307,100.74h-8.31l35.86-63.41h7.1031Zm-39.2736-55.1L700.361,76.6033h34.2739Z"/><path class="b6a2d67d-66fb-4858-98d5-2d59fed6ba43" d="M121.2632,15.3906h0A14.9118,14.9118,0,0,0,101.2961,8.8L8.6966,55.4226A14.9117,14.9117,0,0,0,2.1061,75.39h0a14.9117,14.9117,0,0,0,19.9671,6.59l92.6-46.6224A14.9118,14.9118,0,0,0,121.2632,15.3906Z"/><path class="bb3ba152-96e8-4a90-affb-bd7f03e18bb8" d="M147.1559,61.9935h0a14.9118,14.9118,0,0,0-19.9671-6.59L35.1466,101.7419a14.9118,14.9118,0,0,0-6.59,19.9671h0a14.9118,14.9118,0,0,0,19.9671,6.59l92.0422-46.3389A14.9118,14.9118,0,0,0,147.1559,61.9935Z"/><path class="e6cd5d4f-44c4-449b-915e-7e3d880e0095" d="M148.7889,68.6916h0a14.9171,14.9171,0,0,0-14.8727-14.8727H15.3849A14.9171,14.9171,0,0,0,.5122,68.6916h0A14.917,14.917,0,0,0,15.3849,83.5642H133.9162A14.9234,14.9234,0,0,0,148.7889,68.6916Z"/><path class="f46f5be8-6ea0-46a3-895d-713d0905b9b0" d="M122.3486,21.7855h0A14.917,14.917,0,0,0,107.476,6.9129H41.8153A14.917,14.917,0,0,0,26.9427,21.7855h0A14.917,14.917,0,0,0,41.8153,36.6582h65.6606A14.9171,14.9171,0,0,0,122.3486,21.7855Z"/><path class="a6fb705a-a004-433c-ae3c-7c0f4ff79fa6" d="M122.3486,115.04h0a14.917,14.917,0,0,0-14.8726-14.8726H41.8153A14.917,14.917,0,0,0,26.9427,115.04h0a14.917,14.917,0,0,0,14.8726,14.8727h65.6606A14.9234,14.9234,0,0,0,122.3486,115.04Z"/></svg>