<svg id="ac034e59-ab28-455b-b7ef-a08c2b50ba65" data-name="Layer 1" xmlns="http://www.w3.org/2000/svg" viewBox="0 0 757 178"><defs><style>.a692605b-5998-4b0a-be23-393ef4ab01d3{fill:#050505;}.ada29d51-0da6-4a6e-a09a-554b4f7b5caa{fill:#030303;}.e5b262e7-ca7d-4c50-beed-984e869a9c39{fill:#050404;}.f1953faa-6818-45aa-8f0e-6473969fe8d6{fill:#b6b6b6;}.f8f6109a-cba6-4073-91f6-89a63927bfd7{fill:#5d5d5d;}.a6372b59-df74-49cb-b249-ac3836fe7d96{fill:#f1f2f2;}.b0e4ae09-d442-44f5-861c-58905c954a95{fill:#e9eeee;}.eaaea8ae-db57-4a87-9a8a-353044553e00{fill:#69c278;}.bf10022b-07bf-4a7f-b83a-52a190c3ea45{fill:#e3e5e5;}.ae7002cf-8e53-41a6-bfce-d6ab25f74835{fill:#171414;}.b5c24011-3e7d-400d-8ff5-679a956ac8d3{fill:#868686;}</style></defs><path class="a692605b-5998-4b0a-be23-393ef4ab01d3" d="M201.2472,99.8827c1.2178.996,2.4192,2.0132,3.66,2.98a4.9568,4.9568,0,0,1,1.5736,1.9182,45.5222,45.5222,0,0,0,3.42,6.0148,3.4422,3.4422,0,0,1,.5519,1.76c.1066,2.0447.2668,4.0865.3931,6.13.0453.7332.0584,1.4686.0772,2.2032a4.7377,4.7377,0,0,1-.543,2.4295c-.2493.4608-.4337.9565-.68,1.4189a9.0822,9.0822,0,0,0-1.2043,4.03,2.8393,2.8393,0,0,1-.4187,1.16q-1.7815,3.33-3.6,6.6394-1.8517,3.38-3.73,6.7457a6.55,6.55,0,0,1-.7944,1.1643c-1.4308,1.6087-2.8835,3.1978-4.3335,4.7894-.1365.15-.3085.2674-.6469.5557.2688-1.1616.4425-2.1181.7136-3.0463a65.5675,65.5675,0,0,0,1.8209-9.8956c.2331-1.7694.4646-3.54.7486-5.3014a1.5736,1.5736,0,0,0-.3124-1.3154c-.51-.6607-1.0036-1.3339-1.5609-2.0776-.4836.5335-.9268.9791-1.32,1.4651a11.4947,11.4947,0,0,1-2.7579,2.5591,2.5305,2.5305,0,0,0-1.1762,1.7656c-.2756,1.3888-.5458,2.78-.8662,4.1582a20.9666,20.9666,0,0,1-.78,2.7152c-.8952,2.3522-1.8408,4.6854-2.7864,7.018a15.1912,15.1912,0,0,1-.8279,1.693c-.947,1.6944-1.9135,3.378-2.8764,5.0636-.1221.2137-.2683.4137-.567.87-.08-1.7327.2227-3.1565.2525-4.59.03-1.4675.22-2.9272.1154-4.4034-.1-1.4108-.0894-2.8291-.1405-4.2436-.0531-1.4687-.1005-2.9382-.19-4.4049-.089-1.4644-.2268-2.9259-.3447-4.4077a9.47,9.47,0,0,0-2.3135-1.0462,2.69,2.69,0,0,1-1.2239-.9324c-.5481-.7586-1.1236-1.4974-1.6692-2.22-.4516.0386-.3755.3565-.4408.58a.5674.5674,0,0,0-.0193.156,23.6644,23.6644,0,0,1-1.7238,7.794c-.92,2.622-1.8757,5.236-2.6686,7.8973A32.6955,32.6955,0,0,1,169.04,151.88c-.0367.0676-.1684.0834-.2564.1234-.27-.0893-.2171-.3314-.22-.52a30.0307,30.0307,0,0,0-1.318-7.8926c-.5218-1.8141-.9815-3.6472-1.4214-5.4832a1.8825,1.8825,0,0,0-1.1118-1.4141,7.0082,7.0082,0,0,0-1.6035-.6273,11.3746,11.3746,0,0,1-3.2407-1.1659c-.3728-.1828-.7648-.3265-1.1979-.5091a33.2641,33.2641,0,0,0-2.9327,3.28,1.2809,1.2809,0,0,0-.2456.5628,7.6209,7.6209,0,0,0-.1908,1.2443,26.588,26.588,0,0,1-1.384,6.7622,5.6814,5.6814,0,0,1-.38,1.0311c-.6976,1.288-1.4223,2.5613-2.1845,3.9252a1.3175,1.3175,0,0,1-.49-.9516,81.692,81.692,0,0,0-2.9761-10.1956,53.2632,53.2632,0,0,0-6.9293-1.4274c-.5773,1.63-1.1465,3.2-1.68,4.7827a1.1819,1.1819,0,0,0,.0559.754c1.0826,2.6659,1.8717,5.4525,3.5014,7.89.988,1.4777,1.7789,3.0872,2.6976,4.7066-.2029.037-.365.1231-.4563.075-3.0626-1.6143-6.244-2.9683-9.4347-4.3a8.335,8.335,0,0,1-2.6818-1.8809c-.7778-.7753-1.6388-1.4685-2.4771-2.1813a11.8712,11.8712,0,0,1-3.1516-3.6776,12.9237,12.9237,0,0,0-.9861-1.42c-.4416-.6492-.8991-1.29-1.3-1.9643a19.2688,19.2688,0,0,1-2.3894-5.7894A2.4083,2.4083,0,0,0,121.961,134c-.2753,2.2679.3662,4.3639.7638,6.753a18.5575,18.5575,0,0,1-3.8832-6.7344,11.5458,11.5458,0,0,0-.44,2.2063c-.1248,1.0952-.277,2.1873-.3913,3.2835a1.9925,1.9925,0,0,1-.78,1.4709c-.95.7438-1.8645,1.5352-2.7791,2.3236a1.7807,1.7807,0,0,1-1.1342.46c-.7258.0344-1.4492.1217-2.2752.1957.091,1.91.5579,3.6812.8035,5.4791.248,1.8152.5947,3.617.9062,5.4723-.9676.8567-1.8717,1.7324-2.8563,2.5058a2.6592,2.6592,0,0,0-1.0617,2.46c.0787,1.5154.02,3.0379.02,4.67-1.73,1.0227-3.59,1.9595-5.446,2.92l-3.1847-1.6422-2.4576.4864c-.9267,1.8952-1.8436,3.77-2.7709,5.6671-1.1763,0-2.2782.0382-3.3754-.0169a5.0465,5.0465,0,0,1-1.51-.3667c-1.7133-.6547-3.4281-1.31-5.1105-2.0391a3.9372,3.9372,0,0,0-2.5971-.1778c-1.3776.3236-2.7823.5305-4.1635.84a1.7545,1.7545,0,0,1-1.4731-.2709c-1.7492-1.16-3.5212-2.2851-5.2851-3.4227-3.8805-2.5028-7.7669-4.9964-11.6358-7.517a3.3572,3.3572,0,0,0-1.8951-.6307c-.7341.0009-1.468-.0845-2.2027-.1068-.8-.0243-1.6219.0344-2.0143-.9755-1.16,1.102-1.6437,2.4885-2.649,3.6143-.1914-.3362-.38-.62-.5232-.9262Q48.1978,154.92,45.8553,149.85a6.5066,6.5066,0,0,0-1.3269-1.9283c-1.263-1.262-2.49-2.56-3.7354-3.84-.32-.3289-.654-.6443-.9936-.9777-.4114.3273-.2046.7131-.22,1.0454-.02.4185.0143.84.0252,1.26.0095.3675.0254.7351.0268,1.1026.0013.345-.0127.69-.02,1.0547-.4425-.02-.4606-.3452-.5621-.54q-2.29-4.3965-4.543-8.8117a9.6494,9.6494,0,0,0-1.8318-2.5325c-1.4187-1.4032-2.7673-2.8773-4.19-4.2761a2.5756,2.5756,0,0,1-.7971-1.8037c-.2213-3.5638-.4707-7.1258-.71-10.6884-.1337-1.991-.2254-3.9859-.4169-5.9712a23.8088,23.8088,0,0,0-.5842-3.2483c-1.1-4.59-2.2654-9.1653-3.3264-13.7644a2.9837,2.9837,0,0,0-1.392-1.9491c-2.79-1.87-5.5411-3.7985-8.3387-5.657a3.7191,3.7191,0,0,1-1.4326-1.785q-2.3808-5.74-4.8331-11.45A17.031,17.031,0,0,0,5.488,72.866q-1.4873-2.412-3.0564-4.7731a1.59,1.59,0,0,1-.2143-1.4757c.3715-1.2021.6732-2.4258,1.0438-3.6282a3.6432,3.6432,0,0,0-.0554-2.29c-.9524-2.9436-1.8349-5.91-2.7941-8.8511A3.3792,3.3792,0,0,1,.343,49.699c.2955-.948.55-1.9088.8223-2.8641.778-.5316,1.5487-1.0743,2.3352-1.593,3.8115-2.5133,7.6366-5.006,11.4322-7.5429a2.7917,2.7917,0,0,1,2.0531-.5238c2.8083.38,5.6227.7151,8.4341,1.0719,1.0933.1388,2.1893.2646,3.2759.4449a2.9992,2.9992,0,0,0,2.0858-.4455c4.1859-2.4,8.4055-4.7416,12.5836-7.1549a3.3816,3.3816,0,0,1,2.535-.51,16.1616,16.1616,0,0,0,6.3955-.2387c4.8086-.8244,9.6329-1.5577,14.45-2.3354,2.5867-.4177,5.171-.8506,7.78-1.28a56.7655,56.7655,0,0,0,1.76-5.4135c.2642-1.3325.7332-2.6238,1.0973-3.9373a13.6612,13.6612,0,0,1,.711-2.5562,12.2012,12.2012,0,0,1,1.5988-1.9325,8.2938,8.2938,0,0,1,1.3614-1.7038,7.02,7.02,0,0,1,2.0761-.6774c5.7956-1.6555,11.5976-3.2888,17.3826-4.98a3.0811,3.0811,0,0,1,2.26.1583q6.19,2.72,12.4056,5.382a2.153,2.153,0,0,1,1.3693,1.5411c1.192,4.1858,2.4569,8.3508,3.702,12.5214.0877.2939.22.5744.3429.8889.2952.031.55.0688.8054.0831,4.1945.2333,8.39.4449,12.5833.7029a24.4933,24.4933,0,0,1,5.867,1.0221c5.7009,1.7865,11.4242,3.502,17.1466,5.2191a5.5093,5.5093,0,0,1,2.2755,1.304q8.49,7.9913,17.0258,15.9344c.3818.3569.7694.7077,1.135,1.0435a2.3766,2.3766,0,0,0,1.7524-1.0031c1.28-1.4619,2.5583-2.9262,3.87-4.3595a9.5982,9.5982,0,0,1,1.5219-1.3491c2.3562-1.6675,4.7465-3.2869,7.0991-4.9593a5.3494,5.3494,0,0,1,1.8469-.828q4.7307-1.1784,9.4668-2.3357a5.6245,5.6245,0,0,1,1.2311-.2185c1.7329-.0245,3.4666.0041,5.2-.02a2.3546,2.3546,0,0,1,1.3226.4133c1.3354.8328,2.6823,1.6474,4.0114,2.49a4.7738,4.7738,0,0,1,.9689.79,18.3112,18.3112,0,0,1,2.6558,3.1012,20.401,20.401,0,0,1,1.16,3.7337,9.0286,9.0286,0,0,1,.3591,4.79c-.2417,1.1238-.2874,2.29-.4232,3.4364a2.003,2.003,0,0,1-.082.4643,35.1808,35.1808,0,0,1-2.7767,6.6607c-.5317.8434-1.0689,1.6833-1.5914,2.5323a7.8064,7.8064,0,0,0-.3559.75c1.1288.5315,2.2152,1.05,3.3075,1.5558,1.76.8151,3.5294,1.61,5.2831,2.4381a5.9937,5.9937,0,0,0,1.9519.5475c1.7718.1919,3.5369.4449,5.3769.6828l6.9424,7.4643c.1015.407.3137.7017.9961.9046-.3449-.5126-.1741-.9774-.6187-1.2185-.4552-1.3386-.91-2.6773-1.3871-4.08.1766-.2907.3465-.6089.5521-.9019a61.967,61.967,0,0,1,3.666-5.1173c1.3684-1.5795,3.0411-2.8918,4.534-4.3682a39.1753,39.1753,0,0,1,5.0029-3.66,6.8991,6.8991,0,0,1,1.7373,2.5395,2.2082,2.2082,0,0,1-.0311,1.0864c-.1513,1.1444-.3311,2.2851-.4852,3.4292-.0617.4583-.0853.9217-.14,1.54.68-.2525,1.2176-.4395,1.7458-.65,4.0892-1.63,8.1729-3.2746,12.2666-4.8936,1.364-.5394,2.735-1.0718,4.1325-1.5134a103.8352,103.8352,0,0,0,10.85-4.1819,3.272,3.272,0,0,1,3.1341.1454,5.5954,5.5954,0,0,1,2.9178,4.8669,17.2391,17.2391,0,0,1-5.0361,2.1952c-.2571.0521-.5183.0835-.7769.1284a28.2547,28.2547,0,0,0-5.6763,1.7852,112.7942,112.7942,0,0,0-11.9478,5.9743c-.92.5027-1.8466.995-2.762,1.5069a18.0676,18.0676,0,0,1-4.1748,1.7709,14.2882,14.2882,0,0,0-5.12,2.693,3.0816,3.0816,0,0,0-.35.4142c.2016.2448.3818.4877.5862.708,1.2861,1.3859,2.5874,2.7579,3.8615,4.1545a4.1054,4.1054,0,0,0,1.3835,1.0071q4.2353,1.8918,8.464,3.798a3.9673,3.9673,0,0,0,1.51.3671c2.7288.1006,5.4558.2576,8.185.3381a12.252,12.252,0,0,0,2.4945-.2178c2.22-.3964,4.4322-.8352,6.6414-1.2877a21.3066,21.3066,0,0,0,2.2693-.6151c1.5952-.5155,3.1693-1.0984,4.7721-1.5881a14.9248,14.9248,0,0,0,3.2884-1.4706c1.4424-.8583,2.8844-1.72,4.3611-2.5168a3.5728,3.5728,0,0,0,1.7066-1.9276c2.5355-6.2143,5.123-12.4073,7.6925-18.6077q4.1556-10.0273,8.2968-20.0606a6.8647,6.8647,0,0,1,1.88-2.6608,24.579,24.579,0,0,1,4.1764-2.9554,6.6154,6.6154,0,0,1,.7.5214c3.0319,2.9088,6.0517,5.83,9.0894,8.7331a4.0066,4.0066,0,0,1,1.0432,1.5442c.0359.0987.0723.1973.11.2953a59.3694,59.3694,0,0,0,5.8569,11.2859c1.3238,2.0172,2.5814,4.0809,3.7939,6.1672a7.5166,7.5166,0,0,0,6.4407,3.8786c3.8779.2453,7.7569.4728,11.6349.7152.5717.0358,1.1408.1121,1.8.1786.5494,1.1172,1.0959,2.2283,1.6739,3.4033-.3844.1847-.6577.33-.9418.45-1.1589.4887-2.3452.9192-3.4766,1.4641a19.2052,19.2052,0,0,1-6.5018,1.7064c-.7726.0779-1.5373.2344-2.2893.3525a6.0127,6.0127,0,0,0,1.3764,3.5227,32.3768,32.3768,0,0,0,6.8552,7.321,10.5331,10.5331,0,0,1,3.2656,3.9557c.9119,1.839,1.0075,1.1586.3848,3.3736-.1127.4006-.2388.7975-.3585,1.1957-.17.0745-.307.1476-.4522.1962-2.46.8228-2.4605.8221-4.6773-.4082q-6.9471-3.8556-13.89-7.7191a9.6828,9.6828,0,0,0-2.4679-.9814c-4.5852-1.1121-9.1663-2.2413-13.7533-3.3457a7.6623,7.6623,0,0,0-1.704-.2145c-2.4158-.0232-4.8319-.0142-7.2479-.0057a4.7873,4.7873,0,0,0-1.2486.1c-2.4226.6732-4.836,1.38-7.2845,2.0841-.2694.4542-.5427.8964-.7984,1.3487-2.0138,3.5623-4.0351,7.1205-6.0259,10.6956a2.22,2.22,0,0,1-1.524,1.2109c-1.22.2852-2.42.6557-3.6767,1.0036a14.9491,14.9491,0,0,1-1.8935-1.8893,2.2146,2.2146,0,0,1-.4263-.9829c-.2257-1.0242-.4038-2.0588-.602-3.0891a2.6,2.6,0,0,1,.1934-1.8335,10.8142,10.8142,0,0,0,.6018-1.4516,4.2035,4.2035,0,0,0,.1146-.7,4.2992,4.2992,0,0,0-.655.3619,12.9815,12.9815,0,0,1-4.1368,2.2075c-.9844.3595-1.9775.7042-2.9338,1.13a18.786,18.786,0,0,1-5.1364,1.3916c-5.1459.7074-10.2846,1.4674-15.4287,2.188a5.08,5.08,0,0,1-1.4069-.0245c-2.4927-.358-4.9791-.76-7.4733-1.1053a4.3741,4.3741,0,0,1-1.6165-.5491c-3.7318-2.138-7.4732-4.2592-11.2-6.4057a7.3944,7.3944,0,0,1-1.3738-1.0324c-1.3356-1.2627-2.6393-2.5592-3.9593-3.8385-.2981-.2889-.6123-.5613-.9689-.8867-.7036,1.42-1.3968,2.7626-2.0347,4.1309a3.5893,3.5893,0,0,1-1.418,1.6143q-3.546,2.196-7.0407,4.4743a4.6372,4.6372,0,0,1-1.8857.7083c-2.3868.3568-4.77.7344-7.1569,1.0945-3.1127.47-6.2255.9387-9.3411,1.3881a18.5241,18.5241,0,0,1-2.3448.2086c-1.89.03-3.7814.0089-5.6722.0107-.2942,0-.5883.0126-.8561.0187-.1156.3928.1556.452.3029.5382,1.1767.6894,2.3673,1.355,3.549,2.0359a3.6045,3.6045,0,0,1,.7727.5292.6338.6338,0,0,1,.1358.5507.6071.6071,0,0,1-.4607.3385c-.78-.0756-1.5547-.2113-2.3307-.3289-.5176-.0784-1.0344-.1614-1.5514-.2424a2.2913,2.2913,0,0,0-1.5826-.2774c.0612.1408.0749.2518.1372.3A5.1988,5.1988,0,0,0,201.2472,99.8827ZM78.9043,22.264a2.92,2.92,0,0,0-.51,1.9284,3.38,3.38,0,0,0,.89-1.5354l.6653-1.5532,3.4815-6.9089c1.0742-.2692,2.14-.5368,3.2052-.8032,4.3725-1.0931,8.7429-2.1944,13.12-3.27a3.1121,3.1121,0,0,1,1.987-.0756c3.3306,1.2638,6.6838,2.4684,10.04,3.6625a1.8614,1.8614,0,0,1,1.1418.9947,14.2406,14.2406,0,0,1,1.3777,3.6645,49.9212,49.9212,0,0,0,2.1509,7.3845,27.2487,27.2487,0,0,1,1.5038,6.5478,9.6578,9.6578,0,0,0,.1914,1.0771,23.8948,23.8948,0,0,1,.5949,5.68l-4.1427,2.0312c.3471.4135.6348.7822.949,1.1266q6.2639,6.8652,12.537,13.7221c.46.5029.9483.9818,1.4409,1.4535,3.5269,3.3772,7.0665,6.7413,10.5805,10.1319a14.0257,14.0257,0,0,1,1.63,1.9062c2.0524,2.8549,4.0706,5.7344,6.11,8.5986.196.2751.3047.6618.7373.7327a2.872,2.872,0,0,0,.3234-.3489q3.4586-5.2609,6.912-10.5254a2.5894,2.5894,0,0,0,.4416-1.3157c.1656-2.7772.3666-5.5523.54-8.3291q.3972-6.366.7657-12.7337a6.986,6.986,0,0,0-.0945-1.7108c-.559-2.8829-1.1529-5.759-1.74-8.6363-.051-.25-.1417-.4918-.2219-.764-1.4182-.3443-2.7875-.6839-4.16-1.0087a88.5712,88.5712,0,0,1-12.3994-3.4752,3.4606,3.4606,0,0,0-.9009-.2609c-1.5107-.1529-3.0221-.3179-4.5374-.404-3.3545-.1905-6.711-.3484-10.0678-.4935-1.0965-.0474-2.1966-.0277-3.2946-.0123-.68.0095-.9563-.163-1.1-.8376-.1308-.615-.1849-1.2486-.3483-1.8537-.2993-1.1086-.726-2.1864-.9725-3.305-.7291-3.3081-2.3294-6.2665-3.5436-9.2808-.9358-.3716-1.7642-.6877-2.5825-1.0279-3.0481-1.2674-6.098-2.5309-9.1352-3.8242a2.6958,2.6958,0,0,0-2.1094-.1952,15.2259,15.2259,0,0,1-1.84.4083,97.2229,97.2229,0,0,0-12.0024,3.1493c-1.52.5571-3.0678,1.04-4.656,1.575-.7609,2.3123-1.513,4.5981-2.2651,6.8839Zm-28.05,20.5454c-.3764.4347-.75.8721-1.13,1.3034s-.7846.8427-1.1469,1.2884a4.0346,4.0346,0,0,0-1.05,1.461c.482.0267.8294.05,1.1773.0646,1.0968.0458,2.2.03,3.2883.1521a2.3009,2.3009,0,0,0,1.8535-.5953c1.3293-1.0985,2.6947-2.1533,4.0456-3.2258.2514-.1565.61-.261.2591-.7815-2.1645,0-4.3981-.0094-6.6314.0145C51.2975,42.4932,51.0765,42.6984,50.8546,42.8094Zm-28.6125-2.21h.9821l.0056-.2049-.9759-.06q-2.95-.4538-5.9-.9082a1.7528,1.7528,0,0,0-1.331.2879c-2.7008,1.8021-5.4427,3.5428-8.1373,5.3541-1.2588.8461-2.4421,1.8046-3.66,2.7121a1.742,1.742,0,0,0-.6995,2.361,3.19,3.19,0,0,0,1.4569-.8185C6.11,47.62,8.2629,45.9452,10.32,44.1609a19.4212,19.4212,0,0,1,4.1705-2.7624,4.6149,4.6149,0,0,1,1.94-.5232C18.3689,40.8128,20.3052,40.6951,22.2421,40.5993Zm-8.1262,6.6829a.7463.7463,0,0,0,.1735-1.007l-.5861.5745a9.265,9.265,0,0,0-1.6622,1.72c1.5038,1.7543,2.9613,3.46,4.4278,5.158a3.3881,3.3881,0,0,0,.5859.5172,1.3486,1.3486,0,0,0,1.8558-.0241,14.5912,14.5912,0,0,0,2.6438-2.6587,25.8478,25.8478,0,0,0,2.9282-5.8709c.0243-.0709-.0477-.1747-.0784-.2748a1.79,1.79,0,0,0-1.1775.057l.1777.7514c-.9677,1.0076-1.8789,2.0157-2.8551,2.9563a23.1738,23.1738,0,0,1-3.1026,2.8776c-.8728-.7865-1.6837-1.5231-2.5013-2.2521A2.352,2.352,0,0,1,14.1159,47.2822Zm59.8363,67.9567c.2544.0831.517.1587.7024-.1149a2.146,2.146,0,0,0,.4461-1.3116,46.5558,46.5558,0,0,0-.7365-7.03,46.2669,46.2669,0,0,0-2.0573-6.9208,6.0707,6.0707,0,0,0-.3427-.6816,2.268,2.268,0,0,0-1.8251,2.187l1.576,2.4256-1.8314,1.93a3.1463,3.1463,0,0,0,.7372,2.431c.1673.2006.2964.4325.4576.6387a1.4953,1.4953,0,0,1,.3263,1.4749,2.1122,2.1122,0,0,0,.2079,1.9231c.3678.8108.716,1.6306,1.0678,2.4485a.6427.6427,0,0,0,.6284.3783ZM198.55,142.7249a2.7015,2.7015,0,0,0-.1968.57c-.0238.2-.2879.4281.01.6281a1.9584,1.9584,0,0,0,.7209-1.1665c.4719-.6922.977-1.3644,1.4093-2.0805a48.2155,48.2155,0,0,0,3.518-6.3126,43.4108,43.4108,0,0,0,2.075-5.93,1.7609,1.7609,0,0,0-.261-1.6321,4.6744,4.6744,0,0,0-2.4149-1.9442,4.0669,4.0669,0,0,1-.5709.1946,2.11,2.11,0,0,0-1.7576,1.94,5.32,5.32,0,0,0-.0961.6207c-.0836,1.625-.24,3.2519-.2088,4.875a10.8714,10.8714,0,0,1-.3734,3.0838C199.7635,137.9492,199.165,140.3393,198.55,142.7249Zm-59.393,8.2531c-.49-.9216-.92-1.8818-1.4816-2.7575a32.0006,32.0006,0,0,1-3.667-7.6279c-.4892-1.545-1.113-3.0488-1.7153-4.5555a2.0462,2.0462,0,0,0-.6534-.8359c-.7141-.5316-1.4642-1.0171-2.2179-1.4927-1.0193-.6433-1.43-.57-2.4772.3975a15.5964,15.5964,0,0,0,1.0532,5.3363c.3021,1.0024.7261,1.9685,1.0169,2.9735a5.8428,5.8428,0,0,0,.7434,1.5452,20.9018,20.9018,0,0,0,3.0785,3.3577,21.85,21.85,0,0,0,5.979,4.2866,1.437,1.437,0,0,0,1.3052.5747ZM86.1986,163.906a1.2222,1.2222,0,0,0,.2582.3218c.094.0586.3322.0738.3494.0362a.2676.2676,0,0,0-.2127-.4165c-.1212-.2314-.2275-.4719-.3657-.6926q-4.8011-7.6673-9.6109-15.3291a6.4354,6.4354,0,0,0-.418-.527c-1.8361.22-3.6526.4563-5.474.6469a11.4326,11.4326,0,0,0-3.0356.76c-.2312.0915-.5311.0886-.5063.5925C73.408,154.2161,79.8146,159.0465,86.1986,163.906Zm65.9356-17.6711c.1892-1.4523.4726-2.9.548-4.3581.16-3.0856.2166-6.1766.2982-9.2659a4.7881,4.7881,0,0,0-.1316-1.2441,38.1326,38.1326,0,0,1-.9579-3.7992c-.3149-2.3255-1.6234-4.1749-2.7053-6.1328a2.9577,2.9577,0,0,0-1.7347-1.5145,3.4116,3.4116,0,0,0-3.7411.858,2.8186,2.8186,0,0,0-.44,3.2915c1.15,1.99,2.3081,3.9753,3.4337,5.9789.4861.8655.8245,1.82,1.3608,2.65a18.0942,18.0942,0,0,1,2.6548,7.1551c.331,2.1157.93,4.1874,1.08,6.3358l.0776.72.1981-.0039ZM77.6826,47.5739a1.7056,1.7056,0,0,0-1.4143-.4152l.8073.7387a96.31,96.31,0,0,0,7.5283,8.4412,4.8315,4.8315,0,0,1,1.56,3.5693c.2,4.5026.4836,9.0016.7481,13.5012a2.7874,2.7874,0,0,1-.4439,1.7861,15.2511,15.2511,0,0,1-1.9393,2.6121,34.2676,34.2676,0,0,0-3.0662,3.7795c-1.277,1.6614-2.5228,3.3467-3.7821,5.0218-.39.16-.5589.47-.7621,1.0741.5338-.2814.9441-.2693,1.1455-.6828Q88.52,81.2209,98.9742,75.4373a9.9143,9.9143,0,0,0,.8794-.6168c-.666-2.5582-1.311-5.0409-1.9588-7.5229-1.0455-4.0052-2.1035-8.0071-3.127-12.0179a1.4012,1.4012,0,0,0-.9409-1.1274c-.8863-.3181-1.7468-.7082-2.62-1.0642Q84.4453,50.33,77.6826,47.5739Zm77.86,83.167a8.8154,8.8154,0,0,1,.6067-1.4467,2.6957,2.6957,0,0,0,.3755-1.8051c-.1652-1.6694-.3356-3.3383-.49-5.0087a13.8492,13.8492,0,0,1-.16-2.4986,3.85,3.85,0,0,0-1.0916-3.1522c-.9371-.9884-1.8885-1.9709-2.91-2.87a24.2346,24.2346,0,0,1-1.99-2.4056c-.1015-.8363-.7735-1.348-1.1605-2.0217a5.72,5.72,0,0,0-.52-.587.8669.8669,0,0,1-.1326-1.0186c.15-.2679.5449-.272.9849.002.3113.1938.6059.415.9025.6316.8471.6185,1.688,1.2458,2.54,1.8571.148.1061.3135.2975.5871.06a29.1013,29.1013,0,0,0-3.7739-6.8845c.4869-.6438.6417-.6985,1.0773-.2756.98.951,1.9394,1.9225,2.8955,2.8974a2.4792,2.4792,0,0,1,.4507.6365,48.5814,48.5814,0,0,1,2.398,5.453c.4944,1.4336,1.042,2.8489,1.5663,4.2722a4.9962,4.9962,0,0,1,.3709,1.0329,63.8689,63.8689,0,0,0,1.4577,6.5983,1.2934,1.2934,0,0,1,.0549.7583,3.5837,3.5837,0,0,0-.0244,2.3063c.3035,1.97,1.0482,3.8258,1.46,5.7672a.7615.7615,0,0,0,.3526.49,18.3,18.3,0,0,0,3.2124,1.3442c-.5573-3.85-1.1031-7.6208-1.6648-11.501.5218-.9106,1.0855-1.9166,1.6748-2.9074a2.014,2.014,0,0,1,.5972-.703,9.24,9.24,0,0,1,5.43-1.262.695.695,0,0,1,.3056.056c1.0375.6106,2.1811,1.1238,2.6994,2.3123a11.6871,11.6871,0,0,1,1.1743,3.0679c.0973.7246.21,1.4493.367,2.1627.0865.3932-.0475.9227.6036,1.1312.0627-.4326.142-.8387.1773-1.2487.1125-1.3079.1938-2.6186.3141-3.9258a10.4257,10.4257,0,0,0-2.0309-7.1033c-.239-.3424-.6019-.6948-.6321-1.065a3.72,3.72,0,0,0-.6817-1.5447.92.92,0,0,1-.1351-.7031.6629.6629,0,0,0-.13-.8437,18.6237,18.6237,0,0,0-1.3055-1.5743,20.9037,20.9037,0,0,1-3.5027-5.3758c-.0484-.0893.0523-.2886.1306-.4051a.2922.2922,0,0,1,.2772-.0677,8.0861,8.0861,0,0,1,2.6569,1.61c.5289.6265,1.1036,1.2143,1.7664,1.9378.1737-.36.3712-.5773.3574-.78a8.4539,8.4539,0,0,0-.2647-1.2284c-.1282-.577-.0467-.9173.2329-.9244.5115-.013.5138.4322.63.7582.1228.3459.1978.71.3338,1.05a16.7427,16.7427,0,0,0,1.0659,2.7975c.1469-.1545.2467-.2556.3423-.3605.3736-.41.8014-.3879.9391.0593a2.8271,2.8271,0,0,1,.1111.6176c.0969,1.3063.14,2.6187.2952,3.9177a5.4968,5.4968,0,0,0,.5652,1.9348c.6738,1.2429,1.46,2.4256,2.2151,3.6232a4.042,4.042,0,0,0,.9745,1.2458c1.2226-.31,2.3294-.5885,3.4351-.8714a2.875,2.875,0,0,1,1.8564.1285,6.4841,6.4841,0,0,0,2.2835.5236,1.3444,1.3444,0,0,1,1.3235.9456,6.33,6.33,0,0,0,1.1286,1.8724,6.65,6.65,0,0,1,1.3844,3.2972,2.2035,2.2035,0,0,0,.1673.7656,4.887,4.887,0,0,0,.5868.7521c.4612-.3967.9606-.6025,1.2066-1.0988a10.9961,10.9961,0,0,0,1.3071-6.0635c-.1425-1.41-.3116-2.819-.5431-4.2162a4.3428,4.3428,0,0,0-.6009-1.5926,18.2924,18.2924,0,0,0-4.0977-4.7416,8.3582,8.3582,0,0,1-2.454-3.3676l.387-1.0295a.858.858,0,0,1,1.087.4841,6.3128,6.3128,0,0,0,2.4354,1.9356,2.5706,2.5706,0,0,0,.655.1443c-.252-1.3907-.4882-2.6677-.7128-3.9466a10.3161,10.3161,0,0,1-.1849-1.4012.7013.7013,0,0,1,.3014-.4924c.253-.171.5006-.0357.6846.1791a2.23,2.23,0,0,1,.2651.3889c.6719,1.2469,1.3473,2.4921,2.0015,3.7483a1.7628,1.7628,0,0,1,.2744.8733,2.4,2.4,0,0,0,.4,1.3319c.7833,1.5434,1.5891,3.0754,2.3688,4.62a1.9894,1.9894,0,0,1,.339,1.0156,3.0452,3.0452,0,0,0,.3151,1.51,10.8492,10.8492,0,0,1,.6571,3.8543c-.0206,1.0483.0565,2.0993.1122,3.148.0214.4032.1036.8032.1754,1.3324a4.9971,4.9971,0,0,0,1.6081-1.6311c.7692-1.107,2.05-1.1684,3.1249-1.6468a.878.878,0,0,1,.6153.0538,5.2576,5.2576,0,0,1,3.5255,3.6782,3.969,3.969,0,0,0,.3419.7251,2.7973,2.7973,0,0,0,.6612-1.6474,12.3291,12.3291,0,0,1,.2-1.24,18.125,18.125,0,0,0,.5049-5.6165,11.4753,11.4753,0,0,0-.9278-4.5993c-.9416-1.9911-1.9647-3.9438-2.9629-5.9079a7.2033,7.2033,0,0,0-2.0738-2.536q-1.3178-.9987-2.58-2.07a7.2511,7.2511,0,0,0-2.3176-1.2944c-1.68-.5933-3.353-1.2086-5.0235-1.8292a3.14,3.14,0,0,1-.8172-.4391.53.53,0,0,1,.2073-.8849c.7207-.1385,1.4494-.2354,2.1753-.3468.2-.0306.4222-.0214.44-.3161-.2-.3115-.424-.6239-.8642-.4593a.8484.8484,0,0,1-.87-.1848c-.21-.1571-.42-.315-.63-.4716a7.5156,7.5156,0,0,0-4.0244-1.6023,2.7538,2.7538,0,0,1-.7409-.0711c-1.3259-.4824-2.63-1.0274-3.9662-1.478a6.8313,6.8313,0,0,0-2.5456-.5516c-.0186.1031-.0549.1749-.0335.2035q2.0717,2.7647,4.1521,5.5226c.4723.6273.9615,1.243,1.4082,1.8881a2.6142,2.6142,0,0,1,.3521.8562c.0223.09-.2049.3486-.252.3329-.668-.2234-1.426-.0036-2.0469-.52a11.9356,11.9356,0,0,1-2.7916-2.955,4.5947,4.5947,0,0,0-1.9415-1.7937c-1.2237-.5968-2.4469-1.1986-3.6962-1.7384-2.1623-.9342-4.3658-1.7757-6.5052-2.7582a12.4384,12.4384,0,0,0-1.976-.8553,84.57,84.57,0,0,0-10.64-2.1146c-2.1842-.2921-4.3783-.5121-6.5706-.74a4.8646,4.8646,0,0,0-1.4072.0311,13.85,13.85,0,0,1-3.6046.21,5.2808,5.2808,0,0,0-3.2654.9037c-1.8173,1.1506-3.6506,2.2759-5.473,3.4184-.3074.1927-.5936.419-.8938.6327a2.4844,2.4844,0,0,0,1.3369.8612,7.7672,7.7672,0,0,1,2.7379,1.8056c.9058.8754,1.7965,1.772,2.76,2.5813a10.7182,10.7182,0,0,1,3.2168,3.9737c.1016.2408.2485.4622.3611.699a.4649.4649,0,0,1,.0646.2992,1.2678,1.2678,0,0,1-.2777.5163.467.467,0,0,1-.429.0277,5.1707,5.1707,0,0,1-.7764-.5318c-.9469-.7494-1.8767-1.5208-2.834-2.2565a11.1875,11.1875,0,0,0-1.5667-1.0468c-.8786-.4639-1.7867-.8749-2.6983-1.2717a5.7075,5.7075,0,0,0-1.4831-.4839c-.9831-.13-1.98-.1519-2.97-.2361a3.8186,3.8186,0,0,0-2.0622.3789l-8.5731,16.2209c-.8454-.5146-1.132-1.4644-2.0588-1.9522-.0441.28-.0771.464-.1015.6489q-.5871,4.4487-1.1716,8.8977c-.2114,1.613-.425,3.2259-.6224,4.8407-.093.76.0978,1.1022.83,1.5933.0417-.2161.0832-.4207.12-.6261a6.6237,6.6237,0,0,1,.3295-1.6826,12.5709,12.5709,0,0,0,.818-2.3647,1.479,1.479,0,0,1,.1716-.4276c.05-.0783.181-.17.2538-.1544a.6177.6177,0,0,1,.3584.2119.9443.9443,0,0,1,.12.44c.126,1.3592.277,2.7172.3577,4.0793a23.0324,23.0324,0,0,0,1.5856,7.3447c.1014.25.1655.505.5753.41a18.7537,18.7537,0,0,1,.023-2.188,1.9167,1.9167,0,0,1,.5318-1.2551,16.6267,16.6267,0,0,1,2.3139-1.1659,2.2466,2.2466,0,0,1,.48.2347c1.4568,1.2843,2.9214,2.5607,4.3506,3.8753a7.0384,7.0384,0,0,1,1.55,2.16,12.3467,12.3467,0,0,0,1.1857,1.8341c.1269.1746.3964.2454.7261.4365l.297-1.4214a2.6094,2.6094,0,0,0-.2091-.3393q-3.1146-3.4466-6.2378-6.8854a2.8689,2.8689,0,0,1-.8575-1.6268c-.4674-3.75-.9726-7.4949-1.4722-11.2406a5.16,5.16,0,0,1,.6947-2.8471c.0672-.1485.4737-.1457.5477.0041.161.3257.31.6585.4437.9963a30.8693,30.8693,0,0,0,1.2355,3.2866c.71-1.0334.369-2.253.9511-3.25.3788-.1857,1.05.258,1.2645-.48.02-.0686.334-.1438.4045-.0858a.7322.7322,0,0,1,.2843.487c-.07,1.9384-.1656,3.8759-.2611,5.8134-.0155.3141-.0673.6263-.0956.94-.0705.7839-.1494,1.5672-.2032,2.3523a9.0984,9.0984,0,0,0,2.7415,7.1118c.6858.7236,1.39,1.4364,2.0055,2.2177a3.7,3.7,0,0,0,2.0438,1.3674c1.0645.2781,2.1086.639,3.1794.8865.9144.2114,1.8523.3256,2.7838.4546.2344.0325.5339.0859.6762-.2781-.0952-.1614-.1881-.3456-.3052-.5128-1.3794-1.9706-2.781-3.926-4.1381-5.9118a16.1474,16.1474,0,0,1-2.11-4.204,2.1491,2.1491,0,0,1-.1012-1.2222c.2953-1.22.5235-2.4555.8008-3.68a1.307,1.307,0,0,1,.332-.6923,5.62,5.62,0,0,1,2.4311-1.3859c1.8147-.3666,3.5083.2645,5.2277.6678a.5512.5512,0,0,1,.2708.1538c.5922.6612,1.2043,1.3076,1.7536,2.0033.42.5321.7391,1.1429,1.1367,1.6945.5826.8081,1.1733,1.6126,1.8028,2.384a3.1448,3.1448,0,0,1,.7013,1.7115c.14,1.2505.3282,2.4955.4965,3.7428a1.6159,1.6159,0,0,0,.1274,1.1421A1.1621,1.1621,0,0,0,155.5423,130.7409ZM115.547,96.3966c.0628-.2524-.1048-.6288.3582-.6658.4513.26.8969.5295,1.3548.7769a10.4608,10.4608,0,0,1,4.2889,4.4532,4.8468,4.8468,0,0,1,.7205,2.1951c.03,1.1.1558,2.1986.2477,3.2971.0154.1852-.0507.4316.3659.4836a139.1214,139.1214,0,0,1,9.0036-16.2523c-.0433-.2281-.0641-.3822-.1021-.5318-1.24-4.8788-2.47-9.76-3.7269-14.6342-.4447-1.7249-.851-3.47-1.4521-5.1422-1.3832-3.8477-2.866-7.66-4.3326-11.4771a7.7678,7.7678,0,0,0-.8761-1.656c-2.4685-3.5252-4.97-7.0272-7.4381-10.5529a4.2248,4.2248,0,0,0-1.5007-1.3373c-2.9519-1.5958-5.8872-3.2222-8.8372-4.8216a19.5881,19.5881,0,0,0-1.8506-.86c-3.1469-1.3023-6.3146-2.5557-9.4457-3.8945C87.94,33.9019,83.5759,31.978,79.215,30.0482a4.7741,4.7741,0,0,0-2.7317-.48c-1.4.208-2.8192.2813-4.2281.4325-4.4351.476-8.8666.9868-13.3046,1.4342-2.8688.2891-5.6076,1.1493-8.6018,1.73a5.0868,5.0868,0,0,0,3.3259.713c2.2806-.3505,4.5851-.5418,6.8729-.85a3.9147,3.9147,0,0,1,2.2785.3523c2.47,1.1511,4.965,2.2483,7.4483,3.3709.3777.1707.7441.3666,1.0874.5368l2.9154,7.3447c2.5234.9835,5.0113,1.9521,7.4984,2.9229,2.4405.9525,4.8873,1.8892,7.3181,2.8659,2.47.9923,4.9912,1.861,7.3335,2.9347,2.9394,9.369,6.5871,22.096,6.7025,23.4168-.4856.2514-.9921.518-1.5023.7773q-12.6166,6.414-25.2307,12.8329c-.4016.2046-.9182.2756-1.1458.83.3774,1.2857.375,2.7542,1.5418,3.76.0367.0317.0454.094.0729.1385.7719,1.2491,1.5229,2.5117,2.32,3.7441q6.5426,10.11,13.1179,20.1984a2.9115,2.9115,0,0,1,.4733,2.3455c-.6234,3.1378-1.2115,6.2843-1.7215,9.4423a16.7227,16.7227,0,0,0-.4193,4.2426c.5455.2365,1.065.4744,1.5939.6891,3.69,1.4979,7.3757,3.0056,11.0772,4.4743a4.07,4.07,0,0,1,1.9286,1.5171c.9893,1.421,2.0372,2.8014,3.0719,4.19.1354.1818.2361.4925.6359.3127q-.4283-7.4721-.8586-14.9805a4.2873,4.2873,0,0,1,.7889,1.3419c.97,2.4917,1.9255,4.989,2.8909,7.4824.1031.2663.1189.6148.57.6687.3284-.447.6445-.93,1.0136-1.3676a3.9484,3.9484,0,0,0,.9218-2.2944c.0214-.2613.06-.5218.1039-.78q1.9887-11.7943,3.9741-23.5892a34.9331,34.9331,0,0,0,.5064-3.8973c.1025-1.9385.0538-3.8845.1065-5.8263a3.0658,3.0658,0,0,0-.5084-1.7693C117.4606,99.6511,116.5126,98.0184,115.547,96.3966Zm92.1978-53.6208c-1.564.1127-3.1311.2513-4.7011.3264a4.6687,4.6687,0,0,0-1.8045.4633c-2.0378.9611-4.0515,1.98-6.1267,2.8531a22.4008,22.4008,0,0,0-6.4661,4.1062.7947.7947,0,0,1-.1224.0989,2.487,2.487,0,0,0-1.0892,1.6514c-.29,1.1156-.5815,2.2338-.9467,3.3261a7.0588,7.0588,0,0,0-.25,2.9476c.19,2.09.35,4.1835.507,6.2766.255,3.4017.4925,6.8047.7467,10.2065q.4343,5.8089.8867,11.6163c.1013,1.3.2311,2.5981.3458,3.8743l8.3126,2.9275a4.73,4.73,0,0,1,2.6369-1.4514c2.5348-.4187,5.0717-.8261,7.6019-1.2715a41.3414,41.3414,0,0,0,4.9222-.9908c3.0544-.9329,6.06-2.0274,9.0783-3.0754a8.8751,8.8751,0,0,0,1.56-.7214c1.5361-.8985,3.0541-1.828,4.5765-2.75a3.91,3.91,0,0,0,1.902-2.9293,9.9686,9.9686,0,0,0-4.8006-3.4349q-12.2583-4.2176-24.5-8.4841a4.5028,4.5028,0,0,1-.585-.2284c-.2012-.1032-.55-.0017-.5789-.4646.2916-.228.6076-.4916.94-.7323,1.53-1.1072,3.0249-2.27,4.608-3.2959a33.509,33.509,0,0,0,5.633-5.005,2.6367,2.6367,0,0,0,.7-1.2011c.3619-1.3676.7952-2.7165,1.1477-4.0863a4.5155,4.5155,0,0,0,.1376-1.5473c-.1743-1.7219-.4257-3.4358-.6175-5.1561a1.569,1.569,0,0,0-.5728-1.0663C209.8053,44.6557,208.8019,43.7329,207.7448,42.7758ZM71.785,80.71c.0325-1.2423.1431-2.2285-.9566-2.904A11.4363,11.4363,0,0,1,68.28,75.4754a6.8087,6.8087,0,0,0-.914-.8646c-1.1527-.9077-2.3379-1.7748-3.4778-2.6981-1.4269-1.1559-2.8237-2.3492-4.225-3.5364a1.5837,1.5837,0,0,1-.2424-.4426l.7076-.84a10.6972,10.6972,0,0,1,2.8288,1.4608,24.9048,24.9048,0,0,0,2.7,1.901,20.0275,20.0275,0,0,1,4.4157,3.2605,3.735,3.735,0,0,0,1.2836.91,4.4656,4.4656,0,0,0,.068-.5431c-.0445-2.3843-.0531-2.3787-1.4934-4.29a112.4174,112.4174,0,0,1-7.2891-10.4586,4.117,4.117,0,0,0-1.51-1.5313,152.9753,152.9753,0,0,1-13.549-8.8944,41.0293,41.0293,0,0,1-5.24-4.5211c-.4674-.49-.9079-1.0047-1.304-1.4449a80.1378,80.1378,0,0,0-9.4577-1.2716,32.9839,32.9839,0,0,0-3.3051-.0536,3.68,3.68,0,0,0-.9139.2694A5.011,5.011,0,0,1,26.26,45.2532c.3.664.6139,1.2721.8525,1.9083.3121.8325.5891,1.68.8361,2.5345a2.5326,2.5326,0,0,1-.45,2.3779c-.4828.621-.9552,1.2551-1.373,1.92A3.9844,3.9844,0,0,1,23.5417,55.89a7.0207,7.0207,0,0,0-1.4519.5964,24.0953,24.0953,0,0,1-3.339,1.3314,4.3829,4.3829,0,0,0-1.9971.9757l2.0908,1.3345c1.3918-.5336,2.6411-1.0856,3.9371-1.4868,1.0958-.3391,2.2134-.6035,3.3088-.9627a12.6239,12.6239,0,0,1,3.2091-.67c3.302-.1765,6.6107-.2245,9.9158-.3476a3.0822,3.0822,0,0,1,2.0425.6631c1.3415,1.0106,2.6935,2.0076,4.0223,3.0345,6.685,5.1662,13.0867,10.699,20.1043,15.4362,1.7367,1.1724,3.3286,2.5593,4.9887,3.8454C70.7791,79.9549,71.1916,80.261,71.785,80.71ZM55.861,137.252l-.0992.3039,13.9448,7.4515,19.0417-10.493c.0618-1.517.1022-2.9322.1841-4.3451a16.4912,16.4912,0,0,1,.25-2.1851c.41-2.1093.837-4.216,1.31-6.3118a2.0584,2.0584,0,0,0-.3129-1.76c-3.1671-4.7583-6.2946-9.543-9.4419-14.3145a12.6378,12.6378,0,0,0-.8654-1.0054c.2119,1.2069.3961,2.0759.5118,2.954.219,1.6622.4079,3.3286.588,4.9955.0441.4079-.1181.4994-.76.4812-.1772-.7411-.4057-1.4947-.5332-2.265a37.4047,37.4047,0,0,0-2.6411-9.3533,4.8312,4.8312,0,0,1-.2956-1.0508,2.6479,2.6479,0,0,0-.9563-1.568,13.9939,13.9939,0,0,0,.2155,2.66q1.4039,8.137,2.8188,16.2722a3.2533,3.2533,0,0,1-.0336,1.5429c-.3542,1.2061-.6936,2.42-.9489,3.65a3.4514,3.4514,0,0,1-.8789,1.6285q-4.8474,5.4847-9.6728,10.9888a2.3548,2.3548,0,0,1-1.7383.884c-2.93.2056-5.8562.4655-8.7834.71C56.4619,137.1493,56.1621,137.2085,55.861,137.252Zm27.014,29.5995c-.4072-.4458-.6693-.76-.9588-1.0457Q74.3016,158.28,66.6923,150.75A3.827,3.827,0,0,0,64.66,149.677c-1.18-.2406-2.3466-.549-3.5268-.7894a3.3287,3.3287,0,0,1-1.7431-.9565c-2.8717-2.8425-5.7765-5.6516-8.66-8.4825-.4478-.44-.8549-.9233-1.26-1.4039q-8.2707-9.807-16.5433-19.6124c-1.05-1.24-2.2039-2.3921-3.3232-3.5721-.1588-.1673-.3061-.4413-.6654-.3163a2.6145,2.6145,0,0,0-.0667.4223A120.555,120.555,0,0,0,29.88,128.6145a1.5814,1.5814,0,0,0,.75,1.1244c1.4172,1.08,2.8087,2.1943,4.2143,3.29a4.1917,4.1917,0,0,0,.4663.2855c.9606-.1151,1.7-.7578,2.6646-.714l2.8565,2.4317V138.78c1.9778,2.252,3.9165,4.46,5.8554,6.6671.1384.1575.277.315.4188.4694a.322.322,0,0,0,.1227.0877,1.1037,1.1037,0,0,0,.2284.0161c.0651-.3374.145-.6829.1958-1.0326.06-.415.0769-.8369.1478-1.25.0577-.3363-.1027-.7426.3673-1.0534.1913.2816.4061.55.5709.8472q3.1691,5.7054,6.329,11.4157c.1973.3552.4425.6839.6609,1.0179.6573-.033,1.24-.0153,1.8061-.1023a3.2252,3.2252,0,0,1,2.1042.421c1.66.8936,3.3624,1.71,5.0234,2.6027a26.4118,26.4118,0,0,1,2.68,1.6328c3.2192,2.26,6.4142,4.5552,9.62,6.8349.4252.3024.86.5913,1.3.8933ZM74.3173,86.94c.8828-.9726,1.7386-1.8834,2.5569-2.8268a29.4456,29.4456,0,0,0,1.9773-2.4379,52.3872,52.3872,0,0,1,4.3109-5.79c.3546-.3845.6414-.831.9892-1.2225a1.8921,1.8921,0,0,0,.5-1.5848c-.1164-.9366-.1836-1.88-.26-2.8208-.3143-3.87-.6415-7.7385-.9191-11.6108a2.7442,2.7442,0,0,0-.7064-1.6817q-4.2965-5.0258-8.5692-10.0716c-.1962-.23-.4291-.43-.7279-.726-.1936.4305-.3492.7452-.479,1.07-.9528,2.3844-1.952,4.7519-2.8341,7.1623-.7566,2.0678-1.6112,4.0876-2.55,6.076-.3984.8441-.7776,1.6973-1.1688,2.5536,1.54,2.0239,3.0321,3.9846,4.5231,5.9463a9.774,9.774,0,0,1,1.4743,2.0259,8.8419,8.8419,0,0,1,.4158,2.6128c.1486,1.9844.6427,3.9611.37,5.955a12.9992,12.9992,0,0,0,.4993,5.4282c.1155.4026.1883.8174.3051,1.2195A7.455,7.455,0,0,0,74.3173,86.94ZM176.9456,73.6231q-.6186-9.7624-1.2137-19.1561c-1.3049-1.26-2.53-2.4085-3.7158-3.5959s-2.3455-2.4054-3.4976-3.6277q-1.6743-1.776-3.3087-3.59c-1.1267-1.2457-2.2231-2.5189-3.353-3.7617-1.1169-1.2284-2.1213-2.5615-3.5684-3.977.17.6343.2254.93.3273,1.21,1.1322,3.1018,2.2806,6.1978,3.401,9.3039a8.836,8.836,0,0,1,.4626,1.817c.2691,2.0281.48,4.0639.73,6.0947.5826,4.7382,1.2344,9.4689,1.7462,14.2147.5069,4.7012,1.457,9.3244,2.2506,13.9758a7.9471,7.9471,0,0,0,.9262,2.3414c.6519-2.2813.9532-4.4031,1.4377-6.4814.484-2.0763.7943-4.1939,1.4048-6.3655C172.9993,72.493,174.8754,73.1436,176.9456,73.6231Zm-52.0323-16.39a6.5692,6.5692,0,0,0,.14.9213c.6473,1.9932,1.31,3.9816,1.9646,5.9723a7.1344,7.1344,0,0,1,.3633,1.1965,15.7842,15.7842,0,0,0,.9038,3.3284,36.9021,36.9021,0,0,1,1.3077,4.3638,34.5061,34.5061,0,0,0,2.0868,6.0928,43.7281,43.7281,0,0,1,2.35,6.5c.2457.91.5385,1.81.8512,2.6994.3026.8608.7271,1.0062,1.5747.6788a11.8649,11.8649,0,0,0,3.4628-2.1332,29.1116,29.1116,0,0,1,4.6574-3.4732,3.06,3.06,0,0,0,1.572-1.4962c-.3622-.7161-.7118-1.4154-1.0687-2.111a14.754,14.754,0,0,0-2.5806-4.2828,3.4171,3.4171,0,0,1-.4381-.6515c-.8228-1.28-1.6-2.5917-2.4783-3.8319a21.27,21.27,0,0,0-3.4532-4.0679,30.3092,30.3092,0,0,1-2.4853-2.4049,12.2368,12.2368,0,0,0-2.9427-2.5833,4.6674,4.6674,0,0,1-.6982-.6253c-1.3913-1.1986-2.7805-2.4-4.1837-3.5842A6.1708,6.1708,0,0,0,124.9133,57.2331ZM65.9505,59.3964a3.8917,3.8917,0,0,0,1.3962-1.9c.4612-1.17.9314-2.3362,1.3958-3.5049q1.7986-4.5271,3.5893-9.039c-.7839-1.88-1.5628-3.7125-2.3078-5.5584a1.9391,1.9391,0,0,0-1.0314-1.1012c-2.4578-1.1747-4.9036-2.3748-7.3456-3.582a2.7481,2.7481,0,0,0-1.6675-.219c-2.2356.2934-4.477.5531-6.7221.7616A8.9927,8.9927,0,0,0,49.39,36.4464c-1.0761.6437-2.158,1.2791-3.2134,1.9555A7.3425,7.3425,0,0,0,43.52,41.8326a1.1666,1.1666,0,0,0,.4184,1.52,1.0786,1.0786,0,0,0,1.4341-.1545c.7142-.69,1.4116-1.4016,2.0619-2.1511a37.5863,37.5863,0,0,0,2.4665-3.0483,2.8679,2.8679,0,0,1,1.7682-1.18,7.7805,7.7805,0,0,1,1.3793-.2638,45.7526,45.7526,0,0,0,5.7777-.5669.63.63,0,0,1,.31-.0235,1.96,1.96,0,0,1,.6658.33c.2309.22.0654.4821-.07.7077a2.059,2.059,0,0,1-1.3952.9259c-1.0172.2458-2.0258.5319-3.0261.84a2.3118,2.3118,0,0,0-.61.4269c1.51.4564,2.9583.8984,4.41,1.3317a7.0137,7.0137,0,0,0,3.2488.3885,3.1652,3.1652,0,0,1,1.2427.0889,13.5556,13.5556,0,0,0,4.2177.2666,8.1341,8.1341,0,0,1,1.4144.0357.8432.8432,0,0,1,.53.2837.8048.8048,0,0,1,.1082.5643c-.0186.121-.1818.2548-.3116.3139a1.4529,1.4529,0,0,1-.4639.054c-.7294.0609-1.46.108-2.188.1842-1.3548.1419-2.7058.39-4.0625.4215A2.664,2.664,0,0,0,60.675,44.143a9.8924,9.8924,0,0,1-2.1442,2.0576,15.1194,15.1194,0,0,0-1.5014,1.2951,17.7756,17.7756,0,0,0,2.9874,1.1291A45.1458,45.1458,0,0,1,64.9742,50.11a4.3875,4.3875,0,0,1,1.25.64.813.813,0,0,1,.18.671.5734.5734,0,0,1-.4658.3111,13.7838,13.7838,0,0,1-2.32-.3328,32.3569,32.3569,0,0,0-4.9279-.9727c-.5168-.0572-1.0255-.1858-1.5387-.2771a41.4765,41.4765,0,0,0-4.25-.5955,7.5087,7.5087,0,0,0,2.2218,1.7774,35.4958,35.4958,0,0,1,3.3993,2.262,25.3542,25.3542,0,0,0,4.5435,3.0815A5.484,5.484,0,0,1,65.9505,59.3964ZM315.058,69.3337a2.7228,2.7228,0,0,0,1.95,1.8c2.6724.8557,2.665.8964,5.4878.3275a8.0787,8.0787,0,0,0,2.2458-.6627c1.758-.9278,3.538-1.8137,5.305-2.7246a3.8426,3.8426,0,0,0,.93-.57,16.918,16.918,0,0,0,1.2489-1.4118,6.971,6.971,0,0,0,1.1349-1.4468,4.3853,4.3853,0,0,0-.1879-.486q-2.5752-4.766-5.1573-9.5282a21.35,21.35,0,0,0-3.27-4.4029,6.2724,6.2724,0,0,0-.781-.5989C320.9757,56.2408,318.0242,62.7709,315.058,69.3337Zm-209.33,87.8728a5.83,5.83,0,0,0-.5655-2.9246q-3.8046-6.7895-7.5394-13.6181a2.0725,2.0725,0,0,0-1.3861-1.13c-2.3757-.6393-4.7272-1.3682-7.09-2.0546-.2961-.086-.6069-.1215-.994-.1965-.5807.6042-1.1775,1.1874-1.73,1.81a6.6573,6.6573,0,0,1-2.3856,2.1263,2.5205,2.5205,0,0,0,.7646,1.5986c1.36,1.7331,2.7672,3.4311,4.0822,5.1977a23.1534,23.1534,0,0,0,4.7194,4.804,23.0084,23.0084,0,0,1,2.1821,1.8046,5.3779,5.3779,0,0,0,4.0374,1.7736,1.8938,1.8938,0,0,1,.3081.06C101.9409,156.7008,103.7512,156.9423,105.7284,157.2065ZM42.48,111.15a2.606,2.606,0,0,0-.2006-.4834c-1.3051-1.84-2.5983-3.69-3.9409-5.5025a5.0813,5.0813,0,0,0-1.261-1.1523q-5.89-3.9312-11.8093-7.819c-.2463-.1626-.5158-.29-.9622-.5381.0952.4512.1247.7021.2013.9378,1.2634,3.8884,2.49,7.7895,3.8248,11.6533a27.52,27.52,0,0,0,1.7732,3.6767,5.0971,5.0971,0,0,0,.8242.9271c3.6955-.507,7.331-1.0041,10.9655-1.509A3.5587,3.5587,0,0,0,42.48,111.15Zm3.0551,8.2153a8.009,8.009,0,0,0,.5846,1.0715c.9426,1.1922,1.8867,2.3849,2.8742,3.54,1.8052,2.1112,3.8316,4.0266,5.5174,6.246a18.8112,18.8112,0,0,0,1.2965,1.37,3.3152,3.3152,0,0,0,3.1583.9882,14.39,14.39,0,0,0,1.6656-.4476,15.63,15.63,0,0,0,5.2437-2.7827c1.1121-.872,2.1859-1.7958,3.24-2.7381a3.222,3.222,0,0,0,1.0434-2.8433,8.57,8.57,0,0,0-.9615-3.2713,3.345,3.345,0,0,0-2.1735-.3252c-.0794.4374-.17.8878-.2413,1.3412a1.1569,1.1569,0,0,1-1.1064,1.116,9.8737,9.8737,0,0,0-1.31.3184,3.36,3.36,0,0,0-.1785.522,1.3317,1.3317,0,0,1-1.3849,1.23c-.5165.0393-1.03.1171-1.5747.1811l-.6193,1.4408-1.572.4155-.3846,1.06a3.3449,3.3449,0,0,1-.7791-.308c-1.1215-.8606-2.2734-1.6909-3.3229-2.634a40.9133,40.9133,0,0,0-6.834-4.74,9.713,9.713,0,0,0-1.2672-.624A4.4007,4.4007,0,0,0,45.5354,119.3654ZM51.21,129.3965c-1.2392-1.5915-2.43-3.1209-3.6212-4.6505-1.4172-1.82-2.8288-3.6455-4.2556-5.4584a1.7075,1.7075,0,0,1-.447-1.2846c.133-1.4619.219-2.9281.3151-4.3932.02-.303.0029-.6084.0029-1.0438-1.7585.4166-3.4061.8861-5.05,1.3633a37.95,37.95,0,0,0-5.0194,1.5074c5.82,6.5262,11.5389,12.94,17.265,19.3465.0421.0471.1829.0059.2709.0059.0552-.0981.1391-.1808.1462-.2695C50.951,132.8484,51.0755,131.1765,51.21,129.3965ZM10.9369,66.8653c-1.5391-1.4928-2.8618-3.371-5.0135-4.375A13.075,13.075,0,0,0,4.5055,67.492a2.09,2.09,0,0,0,.3532,1.0025c.852,1.6252,1.784,3.2112,2.5755,4.8648,1.4261,2.98,2.7691,5.9987,4.1574,8.9965a6.1772,6.1772,0,0,0,.5464.7839c.05-.3989.0824-.6058.1011-.8139.2392-2.6665.4954-5.3317.7055-8.0006a7.8046,7.8046,0,0,1,1-3.2793,27.5091,27.5091,0,0,0,2.5776-6.901,3.6712,3.6712,0,0,0-.2762-2.7463c-.296-.5543-.56-1.1257-.85-1.6837a1.2551,1.2551,0,0,0-.2817-.3628.3352.3352,0,0,0-.286-.07.6071.6071,0,0,0-.3281.28,1.8564,1.8564,0,0,0-.0392.6156q.0531,1.5737.12,3.1468a5.0866,5.0866,0,0,1-.8359,3.0829Zm158.2883,78.6636.2889.0479c.09-.2167.1959-.4282.2675-.6508a39.0353,39.0353,0,0,0,1.7871-9.8634c.0511-.9378.3695-1.8308.4278-2.7282.2142-3.2953.2925-6.6006.3649-9.9034a2.29,2.29,0,0,0-2.2068-2.3911,5.9664,5.9664,0,0,0-2.6142.4362,1.9564,1.9564,0,0,0-1.023.9166c-.6522,1.4338-1.259,2.9179-.7774,4.5429a39.5724,39.5724,0,0,1,.93,5.0993,7.7508,7.7508,0,0,0,.4551,1.9763,5.4017,5.4017,0,0,1,.4335,1.9736,17.4334,17.4334,0,0,0,.1451,1.8783C168.1947,139.7545,168.7153,142.6408,169.2252,145.5289ZM185.7169,120.46c-.6966.2468-1.2462.4038-1.7586.6412a.95.95,0,0,0-.4937.5635c-.32,1.6255-.9448,3.2391-.2761,4.9259a3.3737,3.3737,0,0,1,.1282.774c.3968,2.859.8057,5.7164,1.1807,8.5782a20.2589,20.2589,0,0,1,.2164,2.8207c-.032,3.2025-.121,6.4044-.1756,9.6068-.0028.1648-.1225.4342.2911.5065a45.4093,45.4093,0,0,0,2.3075-5.5941,57.42,57.42,0,0,0,1.4587-6.6018,24.5894,24.5894,0,0,0,.642-6.5625,13.8146,13.8146,0,0,0-.9235-4.7642C187.5763,123.7421,186.6574,122.2129,185.7169,120.46ZM169.27,86.3178c4.6673.8729,9.2441,1.6026,13.824,2.4776-1.3374-2.7036-2.6225-5.3407-3.9456-7.9584a12.2133,12.2133,0,0,1-1.4109-3.8077,1.8055,1.8055,0,0,0-.2108-.447c-1.5941-.2453-3.1782-.5659-4.8844-.6845C171.4641,79.3423,170.3844,82.7643,169.27,86.3178ZM24.9958,76.7355c.051-.2495.1093-.4491.13-.6526a1.3531,1.3531,0,0,1,1.1677-1.2937c.4046-.0891.8-.22,1.2375-.3426.1141-.4807.2416-.93.3235-1.3871a1.0229,1.0229,0,0,1,.8309-.8387c.6483-.1781,1.3038-.33,1.8982-.4786.34-1.54.34-1.54,1.8872-2.3738.0428-.1588.0838-.3625.1523-.5565.225-.637.4117-.7763,1.0193-.7051.3927.046.7793.1437,1.2793.2394a6.0888,6.0888,0,0,0-2.1452-3.5032,2.1073,2.1073,0,0,0-2.6036-.3553c-.4141.2251-.8454.4235-1.24.6791a24.5606,24.5606,0,0,0-7.416,7.3864,22.0132,22.0132,0,0,0-1.1432,2.2338,1.3838,1.3838,0,0,0,.1328,1.4765,15.8025,15.8025,0,0,0,3.397,3.69c.1337.1045.3383.2846.6053-.0461l-.8774-2.4464C23.85,76.6953,24.448,76.9572,24.9958,76.7355ZM49.2822,34.1028a6.3814,6.3814,0,0,0-.8285-.3237c-1.0224-.2291-2.0558-.4114-3.0735-.6588a2.4,2.4,0,0,0-2.3456.4459,7.976,7.976,0,0,1-1.0519.688,105.7771,105.7771,0,0,1-10.4522,6.0969c-.0437.0211-.0327.1556-.0465.2372a73.1007,73.1007,0,0,0,10.5206.5637,1.9618,1.9618,0,0,0,.1323-.426,3.2835,3.2835,0,0,1,1.2807-2.2449A31.5078,31.5078,0,0,1,49.2822,34.1028ZM43.2654,77.0209c-.1206-.5652-.1723-.8542-.2447-1.1379-.1945-.7619-.4291-1.5149-.5923-2.2832a77.859,77.859,0,0,0-3.2847-10.4905,3.38,3.38,0,0,0-2.82-2.2149,2.9278,2.9278,0,0,0-3.0148,1.5613,1.3759,1.3759,0,0,0,.0593,1.4836c.4462.6478.8338,1.3377,1.3011,1.9691q3.6,4.8646,7.2385,9.7014A5.7878,5.7878,0,0,0,43.2654,77.0209ZM51.87,120.41c.8352.6348,1.6563,1.1984,2.4054,1.8452a4.21,4.21,0,0,0,2.71.9352,13.4482,13.4482,0,0,0-1.1139-2.3,5.907,5.907,0,0,0-1.3995-2.0715,3.7885,3.7885,0,0,1-1.2834-2.4364c-.0465-.2582-.0855-.5186-.1491-.7727a1.5086,1.5086,0,0,0-.6551-1.03,4.7034,4.7034,0,0,1-.6087-.5209c-.0326-1.2765-.0515-2.5337-.1045-3.79a3.3441,3.3441,0,0,0-.2059-1.2229c-.3447-.7557-.7872-1.4668-1.2439-2.295l-2.4075,1.7633a1.4133,1.4133,0,0,0,.0582.4029,12.849,12.849,0,0,1,1.888,4.2938.5163.5163,0,0,0,.14.2788,2.2957,2.2957,0,0,1,.5335,1.7561A5.6513,5.6513,0,0,0,51.42,118.19,2.3563,2.3563,0,0,1,51.87,120.41ZM34.1423,87.5228a2.4675,2.4675,0,0,0-.5617-.0572,1.3938,1.3938,0,0,1-1.6858-1.048,2.5123,2.5123,0,0,0-.3907-.8465,6.3314,6.3314,0,0,0-4.24-2.1528.6022.6022,0,0,0-.6048.5871,1.8152,1.8152,0,0,0,.3819,1.3316,17.1523,17.1523,0,0,0,1.4537,1.6452c1.12,1.1052,2.327,2.1273,3.3954,3.2789.9244.9963,1.6816,2.1393,3.0523,2.6236a6.2094,6.2094,0,0,1,1.0442.6957c.49.302.9919.5847,1.4969.8606.0785.0429.2006.006.3444.006l.7895-.71-.3318-1.6041c-.4251-.2363-.8238-.4863-1.2466-.6851a1.6458,1.6458,0,0,1-.936-.9978A9.9335,9.9335,0,0,0,34.1423,87.5228Zm15.2824-18.58A12.64,12.64,0,0,0,45.5981,65.7a6.1843,6.1843,0,0,1-.647-.4464,17.7139,17.7139,0,0,0-4.2538-2.3424c-.2268-.093-.4459-.2945-.689.0363l2.0894,4.7092c.6714.0354,1.2441.0518,1.8141.1a4.3177,4.3177,0,0,1,1.8939.2737c.3643,1.49,1.5769,2.387,2.5225,3.5638l2.0337-.4367c.517.37,1.0283.7307,1.5344,1.0988.5088.37.992.78,1.5251,1.1108a1.1048,1.1048,0,0,0,1.2779.1248c-.245-1.69-.241-1.6943-1.4654-2.8473a7.3583,7.3583,0,0,0-1.6514-1.4312A7.2392,7.2392,0,0,0,49.4247,68.9424ZM71.52,121.2848a1.95,1.95,0,0,0,2.4159-.7368,2.4191,2.4191,0,0,0,.4075-2.6389,8.5464,8.5464,0,0,0-.9168-1.4531,56.2663,56.2663,0,0,0-5.4-6.1,11.3248,11.3248,0,0,0-1.0841-.8986c-.2186-.1668-.4642-.2364-.7895.208C67.8743,113.513,69.5836,117.4739,71.52,121.2848ZM20.7512,79.2519a4.9756,4.9756,0,0,0-1.0973.2882c-1.106.515-1.3719,1.3843-.6928,2.2692a12.58,12.58,0,0,0,1.7714,1.9819c1.9139,1.62,3.8833,3.1758,5.8446,4.74a5.0209,5.0209,0,0,0,.9594.5215c.2429.1179.5408.1828.681-.0982a.6235.6235,0,0,0-.13-.5589,11.4288,11.4288,0,0,1-1.4734-2.2078c-1.235-2-2.5145-3.9733-3.7646-5.9645A2.0849,2.0849,0,0,0,20.7512,79.2519Zm32.68,60.1183c.305.3313.5564.6282.8324.9,1.8282,1.8031,3.6913,3.5722,5.4812,5.4126a6.2789,6.2789,0,0,0,3.1563,1.9041c.7107.1617,1.3906.4548,2.0925.661a10.2,10.2,0,0,0,1.0394.1966,6.0585,6.0585,0,0,0,.9721-2.0562c-4.4162-2.3709-8.7921-4.7209-13.172-7.0634C53.7632,139.2881,53.6442,139.3433,53.4309,139.37ZM341.5434,78.9586a6.12,6.12,0,0,0-2.973-3.0917,2.1234,2.1234,0,0,0-1.6588-.2047c-1.2621.3353-2.527.66-3.9007,1.0182a3.1886,3.1886,0,0,0,.62.3358C336.1609,77.6455,338.6945,78.2618,341.5434,78.9586ZM5.0145,52.8913A1.8694,1.8694,0,0,0,5.7079,54.62c.4572.5028.9478.9751,1.4181,1.4661a3.4643,3.4643,0,0,1,1.0516,2.8433,4.0671,4.0671,0,0,0-.0148.7829c.0262.2749.1758.5424.4712.5209a.9579.9579,0,0,0,.6518-.319,1.8764,1.8764,0,0,0,.1993-1.6528A11.2943,11.2943,0,0,0,6.4121,53.24,1.3329,1.3329,0,0,0,5.0145,52.8913Zm65.5474,45.836c.6324-.2684,1.2255-.5719,1.3543-1.3307a4.9164,4.9164,0,0,0-.2661-2.6105.8968.8968,0,0,0-.8271-.6179.815.815,0,0,0-.831.59A3.5858,3.5858,0,0,0,70.5619,98.7273ZM179.3475,57.8834c-.0622.1732-.14.2767-.1226.36.117.55.2544,1.095.4379,1.862A2.5064,2.5064,0,0,0,179.3475,57.8834Zm.8848,5.7536.1445.0018V62.3694l-.1445-.0019Zm1.4227,5.6636-.1552,0v.9614l.1552,0Zm.6374,3.48-.1683-.03a2.2819,2.2819,0,0,0-.0674.4272.78.78,0,0,0,.1174.2673c.0532-.0743.1435-.1449.1515-.2238A2.3188,2.3188,0,0,0,182.2924,72.78Zm-1.6147-8.2268-.1429.0005v.6868l.1429-.001Zm1.2831,6.5174c-.2886.3143-.293.5457,0,.9258Zm-.945-5.0431c-.29.3142-.2945.5448,0,.9217Zm.24,2.1c.0421-.0807.1185-.1622.1168-.242s-.0815-.158-.1271-.237c-.0424.0809-.119.1624-.1175.2424S181.2093,68.0485,181.2556,68.1273Zm-1.1335-6.856-.1388-.2369c-.0426.0809-.12.1627-.1181.2427s.0821.1591.128.2385Q180.0577,61.3937,180.1221,61.2713ZM182.51,74.2671c-.0439.0807-.1222.1616-.1221.2423s.0783.162.1224.2431c.0441-.0809.1225-.1617.1225-.2426S182.5543,74.348,182.51,74.2671Z"/><path class="ada29d51-0da6-4a6e-a09a-554b4f7b5caa" d="M625.77,34.9234c.32.2932.5556.5.7814.7176,2.8758,2.7676,5.7429,5.5444,8.6308,8.2993a5.3714,5.3714,0,0,1,1.4227,2.033,59.227,59.227,0,0,0,5.9974,11.5644c1.2851,1.98,2.5048,4.0039,3.7065,6.036a7.5533,7.5533,0,0,0,6.4771,3.823q5.8178.3488,11.6343.7133c.57.0356,1.1375.1065,1.7338.1638.5572,1.1419,1.0826,2.2184,1.6407,3.362a9.1875,9.1875,0,0,1-.8539.473c-1.8366.77-3.6673,1.5558-5.5239,2.2749a11.92,11.92,0,0,1-2.27.5846c-1.4931.2578-2.997.453-4.4759.6712a5.2306,5.2306,0,0,0,1.2115,3.3973,34.46,34.46,0,0,0,7.4247,7.8588,7.9893,7.9893,0,0,1,2.4774,2.9968c.36.7538.8034,1.4673,1.2028,2.187-.2815,1.0064-.5488,1.9617-.8123,2.9035a2.7534,2.7534,0,0,1-.4512.2246c-.8579.2344-1.7191.4561-2.5793.682-.7464-.3779-1.5057-.7327-2.2373-1.1374q-6.8833-3.807-13.7522-7.64a9.7088,9.7088,0,0,0-2.4654-.9887c-4.6349-1.1275-9.2659-2.2706-13.9016-3.3945a6.1523,6.1523,0,0,0-1.3953-.1773c-2.5207-.0171-5.0417-.0211-7.5623.0024a6.2009,6.2009,0,0,0-1.54.2339c-1.9728.5334-3.9291,1.129-5.908,1.6377a2.2693,2.2693,0,0,0-1.5322,1.201c-2.0921,3.7575-4.2153,7.4977-6.3291,11.2431-.1284.2276-.266.45-.47.7945l-4.6014,1.33a9.531,9.531,0,0,1-1.9133-1.8668,2.9608,2.9608,0,0,1-.52-1.2777c-.2565-1.1733-.4544-2.3594-.6837-3.583-.4177-.0827-.7653-.1764-1.1191-.2172-1.7725-.2049-3.5471-.3914-5.32-.5938a6.46,6.46,0,0,0-2.18.1219q-16.733,3.7285-33.4786,7.3993a5.6847,5.6847,0,0,0-2.7686,1.3557c-.9624.8889-2.0209,1.6732-3.0306,2.5115a1.6322,1.6322,0,0,1-1.1388.4343c-2.7266-.0762-5.4537-.1337-8.1869-.1976-1.1133-1.5247-2.1914-3.0012-3.2748-4.4852.7864-1.34,1.5075-2.6148,2.2773-3.8595a3.16,3.16,0,0,0,.4966-1.7768c-.0252-1.886-.0089-3.7725-.0089-5.7343a8.9559,8.9559,0,0,0-1.1117.152q-5.6944,1.5275-11.3813,3.0833a9.6659,9.6659,0,0,0-1.3239.4934c-1.4392.6329-2.8917,1.2407-4.3018,1.934a28.3185,28.3185,0,0,1-6.8482,2.2435c-3.2342.6673-6.4471,1.4376-9.6786,2.1186a19.1664,19.1664,0,0,1-2.9592.37c-2.8841.1482-5.7713.2361-8.6566.3644a5.896,5.896,0,0,1-2.3149-.3228c-1.0343-.374-2.0785-.7363-3.1428-1.0087-4.168-1.067-7.8141-3.27-11.5639-5.25a1.4658,1.4658,0,0,1-.4062-.2349,18.8314,18.8314,0,0,1-3.1423-3.902c-.0485-.0931-.0935-.1879-.1416-.2811a18.43,18.43,0,0,1-1.8974-6.7655c-.2073-2.1408-.5107-4.2733-.8191-6.4026a2.8469,2.8469,0,0,1,.13-1.3852,41.5784,41.5784,0,0,1,2.1284-5.4083c1.5307-2.9864,2.9838-6.0128,4.4481-9.0327a7.7556,7.7556,0,0,1,1.2123-1.8232c2.2784-2.5417,4.53-5.1074,6.8137-7.6441a9.3437,9.3437,0,0,1,1.5152-1.358q4.4277-3.1464,8.895-6.2369a7.4762,7.4762,0,0,1,1.65-.89c3.64-1.3363,7.2989-2.6208,10.9359-3.965a1.8854,1.8854,0,0,1,1.9045.17c1.832,1.2232,3.7091,2.3791,5.563,3.57.2542.1632.4779.3741.7175.5644a3.7031,3.7031,0,0,1-.2406.4768c-.6451.8908-1.2979,1.776-1.9482,2.663-1.0156.2491-2.0362.4793-3.0448.7537a3.7086,3.7086,0,0,1-2.003-.0494c-2.81-.7445-1.7442-.9044-4.1831.584-2.9554,1.8035-5.8754,3.6649-8.8168,5.4913a14.4957,14.4957,0,0,0-4.2888,4.1085c-2.9518,4.2753-5.8117,8.6141-8.6923,12.9382a6.443,6.443,0,0,0-.6827,1.4023c-1.169,3.2775-1.1622,3.28-1.1622,6.74,0,2.3107.01,4.6216-.0073,6.9322a2.4284,2.4284,0,0,0,.449,1.4567c1.6976,2.5041,1.687,2.5112,4.2063,4.1031,1.3747.8686,2.7574,1.7252,4.1194,2.6134a2.7262,2.7262,0,0,0,1.61.5047c1.6274-.0331,3.2578.036,4.8833-.028,1.2558-.0494,2.5079-.2229,3.7584-.3689,3.6488-.4259,7.2973-.855,10.9426-1.309a15.2233,15.2233,0,0,0,2.1515-.4554c4.9007-1.3521,9.8054-2.6908,14.69-4.0977a30.329,30.329,0,0,1,6.0328-1.0182q2.4333-.1936,4.864-.4186c.3628-.0333.7205-.1222,1.0678-.1832a15.509,15.509,0,0,0-.02-5.0122c-.6628-2.9148-1.357-5.823-1.9729-8.7476-.3022-1.435-.4823-2.8975-.6759-4.3532-.7263-5.4619-1.4657-10.9225-2.1308-16.392a41.0346,41.0346,0,0,1-.1413-4.4029,7.904,7.904,0,0,1,.119-2.496,7.3941,7.3941,0,0,1,1.3657-1.8994c.477-.6226.9644-1.2373,1.4865-1.9058,1.895.1458,3.7476.4793,5.6951.7929.682,1.5007,1.3285,3.0439,2.0777,4.5354a6.1074,6.1074,0,0,1,.6793,4.0647c-.3984,2.11-.5651,4.2642-.8212,6.4006a7.1908,7.1908,0,0,0-.0746,1.2521c.2391,4.2463.4455,8.4952.7637,12.7357.1528,2.0362.5015,4.0594.8035,6.0822.3874,2.5944.8148,5.1828,1.2321,7.7726a7.34,7.34,0,0,0,.2.7478l1.0065.1807-.813.5493a22.2981,22.2981,0,0,0,1.6285,6.752,14.8514,14.8514,0,0,0,3.3551-.5007c5.11-.9183,10.2107-1.8879,15.3161-2.832a11.446,11.446,0,0,1,1.4022-.1741c3.6167-.2134,7.2374-.37,10.85-.636,2.8258-.2078,5.6425-.54,8.4621-.8279,2.2975-.2344,4.592-.5,6.8911-.7156a8.6969,8.6969,0,0,1,1.5654.0872c.8321.0744,1.6628.1663,2.5754.259.2368-.5046.4728-.96.6686-1.4314q8.8323-21.2846,17.6379-42.58a6.807,6.807,0,0,1,1.7839-2.5361A22.6091,22.6091,0,0,1,625.77,34.9234Zm11.1788,29.8229a8.2046,8.2046,0,0,0-.318-.7771q-2.5416-4.7083-5.097-9.4091a20.644,20.644,0,0,0-3.2984-4.3967,6.8864,6.8864,0,0,0-.576-.4837c-.7069,1.121-8.4682,18.2159-9.001,19.7909.7269,1.2488.7559,1.18,1.92,1.6708a7.5125,7.5125,0,0,0,5.35.3569,13.3721,13.3721,0,0,0,2.4-.7132c1.7614-.93,3.55-1.8093,5.3178-2.7272a3.7411,3.7411,0,0,0,1.0253-.7016C635.4555,66.5144,636.1886,65.6246,636.9483,64.7463Zm8.1642,14.1774a6.311,6.311,0,0,0-3.3272-3.2058,1.7813,1.7813,0,0,0-1.0642-.0859c-1.36.31-2.7062.6787-4.3763,1.1078C639.3453,77.6155,642.08,78.2314,645.1125,78.9237Z"/><path class="ada29d51-0da6-4a6e-a09a-554b4f7b5caa" d="M738.5685,85.781l4.2727-.1465c.399-1.4837.777-2.8919,1.1564-4.3.75-2.7843,1.5159-5.5647,2.2416-8.3554a6.78,6.78,0,0,0,.2351-1.855c-.0811-3.0968-.1474-6.1962-.3459-9.2866a36.7685,36.7685,0,0,0-.7247-4.341q-.8667-4.64-1.7718-9.273a9.3807,9.3807,0,0,0-.5343-1.7973c-1.1721-2.8054-2.3748-5.5979-3.5621-8.3845a23.5365,23.5365,0,0,1,3.7323-4.15c1.7793.9063,3.5213,1.96,5.3345,2.961.4268,1.85.86,3.6852,1.2724,5.5249q2.1506,9.594,4.2853,19.1915a8.0264,8.0264,0,0,1,.2125,1.3954c.1471,3.5149.2952,7.03.3939,10.5465a15.83,15.83,0,0,1-.2216,2.5053c-.4908,3.6927-1.0036,7.3826-1.5,11.0745a17.9772,17.9772,0,0,1-7.0674,12.199,1.7091,1.7091,0,0,1-1.4431.38c-1.8133-.2861-3.6362-.5138-5.4587-.7378a2.2286,2.2286,0,0,1-1.14-.4716c-1.3245-1.0328-2.6744-2.0341-3.9712-3.1a6.2409,6.2409,0,0,1-1.0979-1.32q-9.36-13.6263-18.698-27.267a16.5306,16.5306,0,0,0-2.1-2.5419c-1.0535-1.0253-2.0709-2.0876-3.1111-3.1268-.2527-.2525-.5335-.4769-.8893-.7919-.2671.5469-.5012,1.0084-.72,1.477q-4.0285,8.6223-8.061,17.2426a14.0582,14.0582,0,0,1-1.1642,2.0428c-1.7667,2.543-3.5788,5.0543-5.3468,7.5964a4.3189,4.3189,0,0,1-1.7575,1.4984c-2.1281,1.01-4.2272,2.08-6.38,3.1481-.309-.24-.6054-.4444-.873-.6816-1.8862-1.6716-3.7565-3.3616-5.6554-5.0187a3.43,3.43,0,0,1-1.0734-1.6793c-2.6476-8.7291-5.3532-17.4407-7.9776-26.1767-.5414-1.802-.82-3.6837-1.2046-5.5319q-1.1843-5.6976-2.3539-11.41a6.8852,6.8852,0,0,1,4.4-3.7845,5.1162,5.1162,0,0,1,1.64,1.21,13.1007,13.1007,0,0,1,2.6212,3.7121q2.7242,5.5848,5.4129,11.187a12.5006,12.5006,0,0,1,.5785,1.46c1.3284,3.9772,2.7046,7.94,3.95,11.9428.9185,2.9514,1.6617,5.9573,2.4861,8.9381.1947.7045.4008,1.4058.646,2.2638a7.9211,7.9211,0,0,0,.67-.6973q3.2989-4.5126,6.5776-9.04a13.2154,13.2154,0,0,0,.97-1.6152q4.12-7.8773,8.2238-15.7629c.2653-.5085.548-1.0079.8582-1.5769,2.9909-.0582,5.9667.0824,8.9891.2205.3486.3841.7089.76,1.0458,1.1557q5.4638,6.4157,10.9149,12.8422a16.9452,16.9452,0,0,1,1.3778,1.9112q5.4543,8.6562,10.8858,17.3267C737.9958,84.91,738.2558,85.2994,738.5685,85.781Z"/><path class="ada29d51-0da6-4a6e-a09a-554b4f7b5caa" d="M398.7161,82.4534c1.398.1239,2.4811.2376,3.5669.3128,3.7178.2574,7.4369.4962,11.1548.7525,2.1468.1479,4.2916.3261,6.4386.47.8369.0559,1.6781.0858,2.5166.0732q15.1188-.2259,30.2375-.4687c.519-.008,1.0382-.001,1.6407-.001a19.225,19.225,0,0,1,.165,3.234c-.3922.1392-.7624.307-1.15.4026q-9.3872,2.3145-18.7807,4.6024a8.32,8.32,0,0,1-2.0184.248c-8.9774-.0859-17.9546-.2024-26.9322-.2869a5.0414,5.0414,0,0,1-2.2545-.5557q-6.7659-3.342-13.5543-6.638c-.3732-.1823-.7541-.3488-1.2556-.58a3.1007,3.1007,0,0,0,.0088.7827c.509,1.653.989,3.3177,1.5777,4.9427a33.8992,33.8992,0,0,1,1.5257,6.7347c.1506,1.0347.3115,2.0679.4566,3.029-1.6856,2.3436-4.0644,3.5436-6.5669,4.6883a18.36,18.36,0,0,1-1.8-1.4195,13.83,13.83,0,0,1-4.2906-5.3037c-2.1113-4.2194-4.363-8.3685-6.5336-12.5586a7.4923,7.4923,0,0,1-.7169-1.902q-1.8469-9.0153-3.6275-18.044a4.6738,4.6738,0,0,1-.0858-1.3922c.3405-3.13.7071-6.2566,1.0788-9.3827a8.05,8.05,0,0,1,.2808-1.3788c.7455-2.4578,1.522-4.9062,2.26-7.3663a3.0621,3.0621,0,0,1,.9267-1.4148,23.9169,23.9169,0,0,1,5.0926-3.6542c2.6436-1.3915,5.2332-2.8859,7.84-4.3465a11.8875,11.8875,0,0,1,2.1674-.8988,20.9359,20.9359,0,0,1,6.3433-.8991,32.7379,32.7379,0,0,1,7.0085.8312c1.4373.2961,2.8744.5946,4.3161.8681a7.1066,7.1066,0,0,1,2.6049,1.0215c2.9031,1.8854,5.8288,3.7361,8.76,5.5774a2.7155,2.7155,0,0,1,1.2345,1.3659,2.1321,2.1321,0,0,0,.2062.4238,15.0567,15.0567,0,0,1,1.9827,6.3988,8.9692,8.9692,0,0,1-.0324,1.8777c-.0524.626-.1974,1.2437-.2621,1.8692a9.73,9.73,0,0,1-1.3213,3.9786c-2.0091,3.4418-3.9433,6.928-5.8663,10.4191a9.4677,9.4677,0,0,1-2.0565,2.5443c-3.65,3.2427-7.2766,6.5119-10.91,9.7731C399.7024,81.5323,399.3232,81.8921,398.7161,82.4534ZM410.372,45.8346c-1.6355-.9422-3.19-1.8115-4.7152-2.7292a3.8742,3.8742,0,0,0-1.9273-.5547c-1.6243-.06-3.2476-.1565-4.87-.2586a6.7021,6.7021,0,0,0-2.022.1634c-1.8832.4532-3.7688.9188-5.6771,1.2388a14.3149,14.3149,0,0,0-4.9625,1.8541c-.9013.5317-1.8488.9849-2.7679,1.4872a4.0157,4.0157,0,0,0-.9165.5964c-1.5256,1.5073-3.0286,3.0376-4.5558,4.5769.1153.4041.1984.7565.3156,1.0971q4.6005,13.3686,9.212,26.7334a7.7106,7.7106,0,0,0,.4219.8526,34.4173,34.4173,0,0,0,4.1406-3.9822q9.5055-11.6352,19.0624-23.2285c.2642-.3217.5143-.6549.8363-1.0662C411.4334,50.4059,410.9141,48.1693,410.372,45.8346Z"/><path class="e5b262e7-ca7d-4c50-beed-984e869a9c39" d="M303.9482,28.9716c1.4309.6,2.98,1.2376,4.5162,1.9055a1.703,1.703,0,0,1,.7285.56c.6556.9978,1.2627,2.0275,1.9123,3.0856a5.7443,5.7443,0,0,1-.6432.3294c-.2962.1039-.6059.1688-.9077.2578a43.8777,43.8777,0,0,1-5.737,1.6345,35.4267,35.4267,0,0,1-5.8192.0758,6.5094,6.5094,0,0,0-2.444.4683Q262.8927,49.5876,230.2277,61.877c-.4783.18-.9632.3423-1.725.6119.3408-.4808.4882-.73.6749-.9457,1.7544-2.0237,3.5225-4.0356,5.27-6.0656a4.466,4.466,0,0,1,1.4812-1.133q16.4255-7.9407,32.8453-15.8929a10.4294,10.4294,0,0,1,1.9284-.6519c8.9826-2.3213,17.9721-4.6156,26.95-6.9538C299.7287,30.3053,301.7687,29.6247,303.9482,28.9716Z"/><path class="f1953faa-6818-45aa-8f0e-6473969fe8d6" d="M201.2472,99.8827a5.1988,5.1988,0,0,1-.4936-.3085c-.0623-.0483-.076-.1593-.1372-.3a2.2913,2.2913,0,0,1,1.5826.2774C201.9038,99.7259,201.4578,99.466,201.2472,99.8827Z"/><path class="f8f6109a-cba6-4073-91f6-89a63927bfd7" d="M237.9062,77.79c.4446.2411.2738.7059.6187,1.2185-.6824-.2029-.8946-.4976-.9961-.9046Z"/><path class="a6372b59-df74-49cb-b249-ac3836fe7d96" d="M51.87,120.41a2.3563,2.3563,0,0,0-.45-2.22,5.6513,5.6513,0,0,1-.9874-2.9436,2.2957,2.2957,0,0,0-.5335-1.7561.5163.5163,0,0,1-.14-.2788,12.849,12.849,0,0,0-1.888-4.2938,1.4133,1.4133,0,0,1-.0582-.4029l2.4075-1.7633c.4567.8282.8992,1.5393,1.2439,2.295a3.3441,3.3441,0,0,1,.2059,1.2229c.053,1.2558.0719,2.513.1045,3.79a4.7034,4.7034,0,0,0,.6087.5209,1.5086,1.5086,0,0,1,.6551,1.03c.0636.2541.1026.5145.1491.7727a3.7885,3.7885,0,0,0,1.2834,2.4364,5.907,5.907,0,0,1,1.3995,2.0715,13.4482,13.4482,0,0,1,1.1139,2.3,4.21,4.21,0,0,1-2.71-.9352C53.526,121.6084,52.7049,121.0448,51.87,120.41Z"/><path class="a6372b59-df74-49cb-b249-ac3836fe7d96" d="M49.4247,68.9424a7.2392,7.2392,0,0,1,2.1578.2707,7.3583,7.3583,0,0,1,1.6514,1.4312c1.2244,1.153,1.22,1.1572,1.4654,2.8473a1.1048,1.1048,0,0,1-1.2779-.1248c-.5331-.33-1.0163-.7406-1.5251-1.1108-.5061-.3681-1.0174-.729-1.5344-1.0988l-2.0337.4367C47.3826,70.4171,46.17,69.52,45.8057,68.03a4.3177,4.3177,0,0,0-1.8939-.2737c-.57-.0478-1.1427-.0642-1.8141-.1l-2.0894-4.7092c.2431-.3308.4622-.1293.689-.0363a17.7139,17.7139,0,0,1,4.2538,2.3424,6.1843,6.1843,0,0,0,.647.4464A12.64,12.64,0,0,1,49.4247,68.9424Z"/><path class="b0e4ae09-d442-44f5-861c-58905c954a95" d="M14.1159,47.2822a2.352,2.352,0,0,0,.8295,2.5243c.8176.729,1.6285,1.4656,2.5013,2.2521a23.1738,23.1738,0,0,0,3.1026-2.8776c.9762-.9406,1.8874-1.9487,2.8551-2.9563l-.1777-.7514a1.79,1.79,0,0,1,1.1775-.057c.0307.1.1027.2039.0784.2748a25.8478,25.8478,0,0,1-2.9282,5.8709,14.5912,14.5912,0,0,1-2.6438,2.6587,1.3486,1.3486,0,0,1-1.8558.0241,3.3881,3.3881,0,0,1-.5859-.5172c-1.4665-1.698-2.924-3.4037-4.4278-5.158a9.2678,9.2678,0,0,1,1.6621-1.72Q13.9095,47.0662,14.1159,47.2822Z"/><path class="b0e4ae09-d442-44f5-861c-58905c954a95" d="M22.2421,40.5993c-1.9369.0958-3.8732.2135-5.8113.276a4.6149,4.6149,0,0,0-1.94.5232A19.4212,19.4212,0,0,0,10.32,44.1609C8.2629,45.9452,6.11,47.62,3.9832,49.323a3.19,3.19,0,0,1-1.4569.8185,1.742,1.742,0,0,1,.7-2.361c1.2175-.9075,2.4008-1.866,3.66-2.7121,2.6946-1.8113,5.4365-3.552,8.1373-5.3541a1.7528,1.7528,0,0,1,1.331-.2879q2.95.4557,5.9.9082A.3108.3108,0,0,1,22.2421,40.5993Z"/><path class="eaaea8ae-db57-4a87-9a8a-353044553e00" d="M57.8929,43.2578c-1.3509,1.0725-2.7163,2.1273-4.0456,3.2258a2.3009,2.3009,0,0,1-1.8535.5953c-1.0881-.1218-2.1915-.1063-3.2883-.1521-.3479-.0145-.6953-.0379-1.1773-.0646a4.0346,4.0346,0,0,1,1.05-1.461c.3623-.4457.7666-.8571,1.1469-1.2884s.7535-.8687,1.1306-1.3039a39.3912,39.3912,0,0,1,6.6678.0346A.391.391,0,0,1,57.8929,43.2578Z"/><path class="b0e4ae09-d442-44f5-861c-58905c954a95" d="M341.5434,78.9586c-2.8489-.6968-5.3825-1.3131-7.9128-1.9424a3.1886,3.1886,0,0,1-.62-.3358c1.3737-.3579,2.6386-.6829,3.9007-1.0182a2.1234,2.1234,0,0,1,1.6588.2047A6.12,6.12,0,0,1,341.5434,78.9586Z"/><path class="bf10022b-07bf-4a7f-b83a-52a190c3ea45" d="M5.0145,52.8913a1.3329,1.3329,0,0,1,1.3976.3484,11.2943,11.2943,0,0,1,3.073,5.0212,1.8764,1.8764,0,0,1-.1993,1.6528.9579.9579,0,0,1-.6518.319c-.2954.0215-.445-.246-.4712-.5209a4.0671,4.0671,0,0,1,.0148-.7829A3.4643,3.4643,0,0,0,7.126,56.0856c-.47-.491-.9609-.9633-1.4181-1.4661A1.8694,1.8694,0,0,1,5.0145,52.8913Z"/><path class="b0e4ae09-d442-44f5-861c-58905c954a95" d="M70.5619,98.7273a3.5858,3.5858,0,0,1-.57-3.9694.815.815,0,0,1,.831-.59.8968.8968,0,0,1,.8271.6179,4.9164,4.9164,0,0,1,.2661,2.6105C71.7874,98.1554,71.1943,98.4589,70.5619,98.7273Z"/><path class="eaaea8ae-db57-4a87-9a8a-353044553e00" d="M57.8929,43.2578a.391.391,0,0,0-.37-.4143,39.3912,39.3912,0,0,0-6.6678-.0346c.2212-.1105.4422-.3157.6653-.3181,2.2333-.0239,4.4669-.0145,6.6314-.0145C58.503,42.9968,58.1443,43.1013,57.8929,43.2578Z"/><path class="f1953faa-6818-45aa-8f0e-6473969fe8d6" d="M79.5968,20.4341c.1062.2292-.0035.5721.3527.67l-.6653,1.5532-.38-.393Z"/><path class="f8f6109a-cba6-4073-91f6-89a63927bfd7" d="M115.547,96.3966l-.9891-1.392c.7392.0492.7392.0492,1.3473.7262C115.4422,95.7678,115.61,96.1442,115.547,96.3966Z"/><path class="f1953faa-6818-45aa-8f0e-6473969fe8d6" d="M138.8154,151.6053c.2948-.1107.3121-.3723.3413-.6274l.9639,1.2021A1.437,1.437,0,0,1,138.8154,151.6053Z"/><path class="f1953faa-6818-45aa-8f0e-6473969fe8d6" d="M198.55,142.7249l.534.0313a1.9584,1.9584,0,0,1-.7209,1.1665c-.2978-.2-.0337-.4285-.01-.6281A2.7015,2.7015,0,0,1,198.55,142.7249Z"/><path class="ae7002cf-8e53-41a6-bfce-d6ab25f74835" d="M179.3475,57.8834a2.5064,2.5064,0,0,1,.3153,2.2218c-.1835-.767-.3209-1.3123-.4379-1.862C179.2072,58.16,179.2853,58.0566,179.3475,57.8834Z"/><path class="b5c24011-3e7d-400d-8ff5-679a956ac8d3" d="M78.9043,22.264l.38.393a3.38,3.38,0,0,1-.89,1.5354A2.92,2.92,0,0,1,78.9043,22.264Z"/><path class="b5c24011-3e7d-400d-8ff5-679a956ac8d3" d="M154.939,130.7563l.6033-.0154a1.1621,1.1621,0,0,1-.4759,1.1575A1.6159,1.6159,0,0,1,154.939,130.7563Z"/><path class="f1953faa-6818-45aa-8f0e-6473969fe8d6" d="M77.6826,47.5739l-.607.3235-.8073-.7387A1.7056,1.7056,0,0,1,77.6826,47.5739Z"/><path class="b5c24011-3e7d-400d-8ff5-679a956ac8d3" d="M77.68,86.6086q.1919.1956.3835.3913c-.2015.4135-.6118.4014-1.1456.6828C77.1212,87.0783,77.29,86.7681,77.68,86.6086Z"/><path class="ae7002cf-8e53-41a6-bfce-d6ab25f74835" d="M180.2323,63.637v-1.27l.1445.0019v1.2694Z"/><path class="ae7002cf-8e53-41a6-bfce-d6ab25f74835" d="M181.655,69.3006v.9613l-.1552,0v-.9614Z"/><path class="ae7002cf-8e53-41a6-bfce-d6ab25f74835" d="M182.2924,72.78a2.3188,2.3188,0,0,1,.0332.44c-.008.0789-.0983.15-.1515.2238a.78.78,0,0,1-.1174-.2673,2.2819,2.2819,0,0,1,.0674-.4272Z"/><path class="b5c24011-3e7d-400d-8ff5-679a956ac8d3" d="M14.1159,47.2822q-.2064-.2161-.4127-.4325l.5862-.5745A.7463.7463,0,0,1,14.1159,47.2822Z"/><path class="ae7002cf-8e53-41a6-bfce-d6ab25f74835" d="M180.6777,64.5533V65.24l-.1429.001v-.6868Z"/><path class="ae7002cf-8e53-41a6-bfce-d6ab25f74835" d="M181.9608,71.0707v.9258C181.6678,71.6164,181.6722,71.385,181.9608,71.0707Z"/><path class="ae7002cf-8e53-41a6-bfce-d6ab25f74835" d="M181.0158,66.0276v.9217C180.7213,66.5724,180.726,66.3418,181.0158,66.0276Z"/><path class="b5c24011-3e7d-400d-8ff5-679a956ac8d3" d="M22.2421,40.5993a.3108.3108,0,0,0,.0117-.2647l.976.06-.0056.2049Z"/><path class="ae7002cf-8e53-41a6-bfce-d6ab25f74835" d="M181.2552,68.1274c-.0459-.0789-.1259-.157-.1274-.2367s.0751-.1615.1175-.2424c.0456.079.1254.1572.1271.237S181.2977,68.0466,181.2552,68.1274Z"/><path class="ae7002cf-8e53-41a6-bfce-d6ab25f74835" d="M180.1221,61.2715l-.1289.2441c-.0459-.0794-.1262-.1581-.128-.2385s.0755-.1618.1181-.2427Q180.0527,61.1529,180.1221,61.2715Z"/><path class="ae7002cf-8e53-41a6-bfce-d6ab25f74835" d="M182.51,74.2671c.0443.0809.1225.1619.1224.2428s-.0784.1617-.1225.2426c-.0441-.0811-.1223-.162-.1224-.2431S182.4657,74.3478,182.51,74.2671Z"/><path class="b5c24011-3e7d-400d-8ff5-679a956ac8d3" d="M151.7985,146.19l.3358.0452-.06.6712-.1981.0039Z"/><path class="b5c24011-3e7d-400d-8ff5-679a956ac8d3" d="M86.1986,163.906l.3949-.0585a.2676.2676,0,0,1,.2127.4165c-.0172.0376-.2554.0224-.3494-.0362A1.2222,1.2222,0,0,1,86.1986,163.906Z"/><path class="f1953faa-6818-45aa-8f0e-6473969fe8d6" d="M73.3089,115.0172a.4869.4869,0,0,1,.6434.2217Z"/><path class="a6372b59-df74-49cb-b249-ac3836fe7d96" d="M645.1125,78.9237c-3.0325-.6923-5.7672-1.3082-8.7677-2.1839,1.67-.4291,3.0165-.7981,4.3763-1.1078a1.7813,1.7813,0,0,1,1.0642.0859A6.311,6.311,0,0,1,645.1125,78.9237Z"/></svg>